<svg xmlns="http://www.w3.org/2000/svg" xmlns:xlink="http://www.w3.org/1999/xlink" viewBox="0 0 80 80"><defs><style>.cls-1{fill:none;}.cls-2{clip-path:url(#clip-path);}.cls-3{fill:#fff;}</style><clipPath id="clip-path"><rect class="cls-1" width="80" height="80"/></clipPath></defs><title>icon</title><g id="forground"><g class="cls-2"><path class="cls-3" d="M38.64,68.89V43.06l-1,1h11.5l-1-1v8.12a1,1,0,0,0,1,1H60.39l-1-1v8.88a1,1,0,0,0,1,1H71.65l-1-1v9.5a1,1,0,0,0,2,0v-9.5a1,1,0,0,0-1-1H60.39l1,1V51.18a1,1,0,0,0-1-1H49.13l1,1V43.06a1,1,0,0,0-1-1H37.64a1,1,0,0,0-1,1V68.89a1,1,0,0,0,2,0Z"/><path class="cls-3" d="M31,69H5l1,1V55.83l-1,1H31l-1-1V70a1,1,0,0,0,2,0V55.83a1,1,0,0,0-1-1H5a1,1,0,0,0-1,1V70a1,1,0,0,0,1,1H31A1,1,0,0,0,31,69Z"/><path class="cls-3" d="M28.54,54.83H7.43l1,1V12.29l-.75,1L28.8,6.07l-1.25-1V55.83a1,1,0,0,0,2,0V5.1a1,1,0,0,0-1.25-1L7.18,11.32a1,1,0,0,0-.75,1V55.83a1,1,0,0,0,1,1H28.54A1,1,0,0,0,28.54,54.83Z"/><path class="cls-3" d="M20.31,69H15.63l1,1V63.12l-1,1h4.69l-1-1V70a1,1,0,0,0,2,0V63.12a1,1,0,0,0-1-1H15.63a1,1,0,0,0-1,1V70a1,1,0,0,0,1,1h4.69A1,1,0,0,0,20.31,69Z"/><path class="cls-3" d="M13.53,20.08V55.44a1,1,0,0,0,2,0V20.08a1,1,0,0,0-2,0Z"/><path class="cls-3" d="M20.09,20.08V55.44a1,1,0,0,0,2,0V20.08a1,1,0,0,0-2,0Z"/><path class="cls-3" d="M74.62,69H36.44a1,1,0,0,0,0,2H74.62a1,1,0,0,0,0-2Z"/><path class="cls-3" d="M57.68,73.9H22.32a1,1,0,0,0,0,2H57.68a1,1,0,0,0,0-2Z"/><path class="cls-3" d="M14,73.9H10a1,1,0,0,0,0,2h4a1,1,0,0,0,0-2Z"/><path class="cls-3" d="M68,73.9h-4a1,1,0,0,0,0,2h4a1,1,0,0,0,0-2Z"/><path class="cls-3" d="M53.22,39H51.81l.75.75V35.89a6,6,0,0,1,0-1.67c.33-.93,2-1,2.83-1.21a.76.76,0,0,0,.56-.73V31l-1.12.65a3,3,0,0,0,3.1,0L56.81,31v1.33a.76.76,0,0,0,.56.73c.78.16,2.45.27,2.83,1.13a5.19,5.19,0,0,1,0,1.59v4l.75-.75H59a.75.75,0,0,0,0,1.5h2a.76.76,0,0,0,.75-.75c0-1.76.08-3.54,0-5.3-.11-2.22-2.1-2.49-3.95-2.88l.56.73V31a.76.76,0,0,0-1.12-.65,1.34,1.34,0,0,1-1.62,0,.76.76,0,0,0-1.12.65v1.33l.56-.73c-1.93.47-3.87.63-3.95,3-.06,1.73,0,3.48,0,5.21a.76.76,0,0,0,.75.75h1.41a.75.75,0,0,0,0-1.5Z"/><path class="cls-3" d="M58.59,27.94a1.88,1.88,0,0,1-1.2-.68.76.76,0,0,0-1.06,0,1.84,1.84,0,0,1-2,.21.76.76,0,0,0-1.12.65v.21c0,1,1.46,1,1.5,0v-.21l-1.12.65a3.42,3.42,0,0,0,3.82-.46H56.33a3.19,3.19,0,0,0,1.88,1.07c.94.18,1.33-1.27.38-1.45Z"/><path class="cls-3" d="M58.08,28.34c0,1-.54,2.24-1.7,2.24s-1.7-1.28-1.7-2.24.58-2.24,1.7-2.24,1.66,1.28,1.7,2.24,1.55,1,1.5,0c-.08-1.79-1.19-3.74-3.2-3.74s-3.2,1.95-3.2,3.74,1.17,3.64,3.06,3.73c2.08.1,3.26-1.88,3.35-3.73C59.63,27.37,58.13,27.37,58.08,28.34Z"/><path class="cls-3" d="M58.07,36.94V47.46l.75-.75H53.93l.75.75V36.94a.75.75,0,0,0-1.5,0V47.46a.76.76,0,0,0,.75.75h4.89a.76.76,0,0,0,.75-.75V36.94a.75.75,0,0,0-1.5,0Z"/><path class="cls-3" d="M55.62,41.46v5.79a.75.75,0,0,0,1.5,0V41.46a.75.75,0,0,0-1.5,0Z"/><path class="cls-3" d="M64.94,48.21H63.53l.75.75V45.11a6,6,0,0,1,0-1.67c.33-.93,2-1,2.83-1.21a.76.76,0,0,0,.56-.73V40.18l-1.12.65a3,3,0,0,0,3.1,0l-1.12-.65V41.5a.76.76,0,0,0,.56.73c.78.16,2.45.27,2.83,1.13a5.19,5.19,0,0,1,0,1.59v4l.75-.75h-2a.75.75,0,0,0,0,1.5h2a.76.76,0,0,0,.75-.75c0-1.76.08-3.54,0-5.3-.11-2.22-2.1-2.49-3.95-2.88l.56.73V40.18a.76.76,0,0,0-1.12-.65,1.34,1.34,0,0,1-1.62,0,.76.76,0,0,0-1.12.65V41.5l.56-.73c-1.93.47-3.87.63-3.95,3-.06,1.73,0,3.48,0,5.21a.76.76,0,0,0,.75.75h1.41a.75.75,0,0,0,0-1.5Z"/><path class="cls-3" d="M70.31,37.16a1.88,1.88,0,0,1-1.2-.68.76.76,0,0,0-1.06,0,1.84,1.84,0,0,1-2,.21.76.76,0,0,0-1.12.65v.21c0,1,1.46,1,1.5,0v-.21L65.28,38a3.42,3.42,0,0,0,3.82-.46H68a3.19,3.19,0,0,0,1.88,1.07c.94.18,1.33-1.27.38-1.45Z"/><path class="cls-3" d="M69.8,37.55c0,1-.54,2.24-1.7,2.24s-1.7-1.28-1.7-2.24.58-2.24,1.7-2.24,1.66,1.28,1.7,2.24,1.55,1,1.5,0c-.08-1.79-1.19-3.74-3.2-3.74s-3.2,1.95-3.2,3.74S66.07,41.2,68,41.29c2.08.1,3.26-1.88,3.35-3.73C71.35,36.59,69.85,36.59,69.8,37.55Z"/><path class="cls-3" d="M69.79,46.16V56.68l.75-.75H65.65l.75.75V46.16a.75.75,0,0,0-1.5,0V56.68a.76.76,0,0,0,.75.75h4.89a.76.76,0,0,0,.75-.75V46.16a.75.75,0,0,0-1.5,0Z"/><path class="cls-3" d="M67.09,50.67v5.79a1,1,0,0,0,2,0V50.67a1,1,0,0,0-2,0Z"/><path class="cls-3" d="M43.45,20.64v1.22a.76.76,0,0,0,.56.73c.85.11,1.43.32,2.15-.13a10.43,10.43,0,0,0,1.66-1.88l2.44-2.76a6.85,6.85,0,0,0,.55-.63c.29-.43.27.08-.36,0a9.25,9.25,0,0,1,1.65.62l-.46-1.1-4,5.54c-1.3,1.8-2.32,2.88-2.62,5.06-.53,3.91-.2,8.06-.2,12l.75-.75H40.05l.75.75c0-4,.36-8.18-.2-12.14-.27-1.9-1.43-3.05-2.55-4.6L34,17l-.46,1.1c.54-.2,1.09-.47,1.65-.62-.55.15-.66-.44,0,.41C36.05,19,37.07,20,38,21a11.58,11.58,0,0,0,1.47,1.67c.74.54,1.29.33,2.22.21a.75.75,0,0,0,.56-.73v-1.5a.75.75,0,0,0-1.5,0v1.5l.56-.73a4.08,4.08,0,0,1-1.15.15c.69.2.21-.16,0-.34L39,20,35.7,16.18A.73.73,0,0,0,35,16l-1.78.67c-.4.15-.77.67-.46,1.1l3.58,5c1.17,1.62,2.57,3,2.83,4.83.55,3.82.15,7.91.15,11.76a.76.76,0,0,0,.75.75h5.52a.76.76,0,0,0,.75-.75,106.24,106.24,0,0,1,.15-11.62c.22-2,1.34-3.13,2.61-4.89l3.87-5.35c.31-.43-.06-.95-.46-1.1l-1.78-.67a.73.73,0,0,0-.72.2l-3.22,3.64c-.4.45-.79.92-1.21,1.37-.12.12-.66.58-.11.4a3.42,3.42,0,0,1-1.06-.14l.56.73V20.64a.75.75,0,0,0-1.5,0Z"/><path class="cls-3" d="M42.06,33.28v5.79a.75.75,0,0,0,1.5,0V33.28a.75.75,0,0,0-1.5,0Z"/><path class="cls-3" d="M44.84,17.72c-.05,1.14-.65,2.63-2,2.63s-2-1.48-2-2.63.69-2.63,2-2.63,2,1.49,2,2.63c0,1,1.55,1,1.5,0-.09-2-1.3-4.13-3.52-4.13s-3.52,2.15-3.52,4.13,1.28,4,3.36,4.11c2.29.11,3.58-2.08,3.68-4.11C46.38,16.75,44.88,16.75,44.84,17.72Z"/><path class="cls-3" d="M45.29,17.36a2.2,2.2,0,0,1-1.4-.79.76.76,0,0,0-1.06,0,2.18,2.18,0,0,1-2.4.26.76.76,0,0,0-1.12.65v.24c0,1,1.46,1,1.5,0v-.24l-1.12.65a3.76,3.76,0,0,0,4.2-.5H42.83a3.51,3.51,0,0,0,2.08,1.18c.94.18,1.33-1.27.38-1.45Z"/><path class="cls-3" d="M50.67,6.46V17.06a1,1,0,0,0,2,0V6.46a1,1,0,0,0-2,0Z"/><path class="cls-3" d="M51.82,12.38c1.78-.15,3.7-1.2,5.36-1.8l5.31-2c.83-.31,1.1-1.76,0-1.93L51.92,5a1,1,0,0,0-1.25,1l.16,5.44a1,1,0,0,0,2,0l-.16-5.44-1.25,1L62,8.62V6.69L57.07,8.5,53.7,9.71c-.46.16-.92.33-1.38.48-.13,0-.82.22-.5.19C50.55,10.49,50.54,12.49,51.82,12.38Z"/></g></g></svg>