<svg xmlns="http://www.w3.org/2000/svg" width="20" height="20" viewBox="0 0 20 20">
  <metadata><?xpacket begin="﻿" id="W5M0MpCehiHzreSzNTczkc9d"?>
<x:xmpmeta xmlns:x="adobe:ns:meta/" x:xmptk="Adobe XMP Core 5.6-c142 79.160924, 2017/07/13-01:06:39        ">
   <rdf:RDF xmlns:rdf="http://www.w3.org/1999/02/22-rdf-syntax-ns#">
      <rdf:Description rdf:about=""/>
   </rdf:RDF>
</x:xmpmeta>
                                                                                                    
                                                                                                    
                                                                                                    
                                                                                                    
                                                                                                    
                                                                                                    
                                                                                                    
                                                                                                    
                                                                                                    
                                                                                                    
                                                                                                    
                                                                                                    
                                                                                                    
                                                                                                    
                                                                                                    
                                                                                                    
                                                                                                    
                                                                                                    
                                                                                                    
                                                                                                    
                           
<?xpacket end="w"?></metadata>
<defs>
    <style>
      .cls-1 {
        fill: #fff;
        fill-rule: evenodd;
      }
    </style>
  </defs>
  <path id="Forma_1_copy" data-name="Forma 1 copy" class="cls-1" d="M16.008,2.328h-0.8V1H13.883V2.328H5.117V1H3.789V2.328h-0.8A2,2,0,0,0,1,4.32V16.008A1.994,1.994,0,0,0,2.992,18H16.008A1.994,1.994,0,0,0,18,16.008V4.32A1.994,1.994,0,0,0,16.008,2.328Zm0.664,13.68a0.665,0.665,0,0,1-.664.664H2.992a0.665,0.665,0,0,1-.664-0.664V7.242H16.672v8.766Zm0-10.094H2.328V4.32a0.665,0.665,0,0,1,.664-0.664h0.8V4.984H5.117V3.656h8.766V4.984h1.328V3.656h0.8a0.665,0.665,0,0,1,.664.664V5.914ZM3.523,8.637H4.851V9.965H3.523V8.637Zm2.656,0H7.508V9.965H6.18V8.637Zm2.656,0h1.328V9.965H8.836V8.637Zm2.656,0H12.82V9.965H11.492V8.637Zm2.656,0h1.328V9.965H14.148V8.637ZM3.523,11.293H4.851v1.328H3.523V11.293Zm2.656,0H7.508v1.328H6.18V11.293Zm2.656,0h1.328v1.328H8.836V11.293Zm2.656,0H12.82v1.328H11.492V11.293ZM3.523,13.949H4.851v1.328H3.523V13.949Zm2.656,0H7.508v1.328H6.18V13.949Zm2.656,0h1.328v1.328H8.836V13.949Zm2.656,0H12.82v1.328H11.492V13.949Zm2.656-2.656h1.328v1.328H14.148V11.293Z" transform="translate(0.5 0.5)"/>
</svg>
