<svg xmlns="http://www.w3.org/2000/svg" width="20" height="20" viewBox="0 0 20 20">
  <metadata><?xpacket begin="﻿" id="W5M0MpCehiHzreSzNTczkc9d"?>
<x:xmpmeta xmlns:x="adobe:ns:meta/" x:xmptk="Adobe XMP Core 5.6-c142 79.160924, 2017/07/13-01:06:39        ">
   <rdf:RDF xmlns:rdf="http://www.w3.org/1999/02/22-rdf-syntax-ns#">
      <rdf:Description rdf:about=""/>
   </rdf:RDF>
</x:xmpmeta>
                                                                                                    
                                                                                                    
                                                                                                    
                                                                                                    
                                                                                                    
                                                                                                    
                                                                                                    
                                                                                                    
                                                                                                    
                                                                                                    
                                                                                                    
                                                                                                    
                                                                                                    
                                                                                                    
                                                                                                    
                                                                                                    
                                                                                                    
                                                                                                    
                                                                                                    
                                                                                                    
                           
<?xpacket end="w"?></metadata>
<defs>
    <style>
      .cls-1 {
        fill: #f26225;
        fill-rule: evenodd;
      }
    </style>
  </defs>
  <path class="cls-1" d="M1208,420h-1v12a2,2,0,0,1-2,2h-9a2,2,0,0,1-2-2V420h-2v-1h1a2,2,0,0,1,2-2h2v-2a1,1,0,0,1,1-1h5a1,1,0,0,1,1,1v2h2a2,2,0,0,1,2,2h1v1h-1Zm-6-4h-3v1h3v-1Zm-7,4v12a1,1,0,0,0,1,1h9a1,1,0,0,0,1-1V420h-11Zm8.5,11a0.5,0.5,0,0,1-.5-0.5v-8a0.5,0.5,0,0,1,1,0v8A0.5,0.5,0,0,1,1203.5,431Zm-3,0a0.5,0.5,0,0,1-.5-0.5v-8a0.5,0.5,0,0,1,1,0v8A0.5,0.5,0,0,1,1200.5,431Zm-3,0a0.5,0.5,0,0,1-.5-0.5v-8a0.5,0.5,0,0,1,1,0v8A0.5,0.5,0,0,1,1197.5,431Z" transform="translate(-1190.5 -414)"/>
</svg>
