<svg xmlns="http://www.w3.org/2000/svg" width="20" height="20" viewBox="0 0 20 20">
  <metadata><?xpacket begin="﻿" id="W5M0MpCehiHzreSzNTczkc9d"?>
<x:xmpmeta xmlns:x="adobe:ns:meta/" x:xmptk="Adobe XMP Core 5.6-c142 79.160924, 2017/07/13-01:06:39        ">
   <rdf:RDF xmlns:rdf="http://www.w3.org/1999/02/22-rdf-syntax-ns#">
      <rdf:Description rdf:about=""/>
   </rdf:RDF>
</x:xmpmeta>
                                                                                                    
                                                                                                    
                                                                                                    
                                                                                                    
                                                                                                    
                                                                                                    
                                                                                                    
                                                                                                    
                                                                                                    
                                                                                                    
                                                                                                    
                                                                                                    
                                                                                                    
                                                                                                    
                                                                                                    
                                                                                                    
                                                                                                    
                                                                                                    
                                                                                                    
                                                                                                    
                           
<?xpacket end="w"?></metadata>
<defs>
    <style>
      .cls-1 {
        fill: #333;
        fill-rule: evenodd;
      }
    </style>
  </defs>
  <path class="cls-1" d="M4.845,12.51h10.08A2.121,2.121,0,0,0,17,10.354V5.9a0.05,0.05,0,0,0,0-.023c0-.008,0-0.02,0-0.027s0-.016,0-0.023A0.278,0.278,0,0,1,16.981,5.8c0-.008,0-0.016-0.007-0.023s0-.016-0.008-0.023a0.2,0.2,0,0,1-.011-0.027,0.084,0.084,0,0,0-.011-0.02l-0.011-.023c0-.008-0.008-0.012-0.011-0.02s-0.011-.016-0.015-0.023a0.069,0.069,0,0,0-.015-0.02c0-.008-0.011-0.012-0.015-0.02s-0.011-.012-0.015-0.019a0.055,0.055,0,0,0-.015-0.016l-0.019-.02c-0.007,0-.011-0.012-0.019-0.016s-0.015-.012-0.023-0.016L16.767,5.5a0.079,0.079,0,0,1-.023-0.016l-0.023-.012L16.7,5.465l-0.023-.012c-0.007,0-.015,0-0.023-0.008a0.067,0.067,0,0,0-.026-0.008,0.153,0.153,0,0,1-.019,0,0.176,0.176,0,0,1-.045-0.008L3.789,3.595V1.744a0.25,0.25,0,0,0,0-.055,0.031,0.031,0,0,0,0-.016c0-.012,0-0.023,0-0.035s0-.02-0.007-0.031,0-.012,0-0.02L3.755,1.552s0-.012,0-0.016a0.12,0.12,0,0,0-.015-0.031s0-.012-0.007-0.016a0.086,0.086,0,0,0-.015-0.023c0-.008-0.008-0.012-0.011-0.019s-0.007-.012-0.011-0.02S3.68,1.412,3.676,1.4L3.665,1.392,3.642,1.369,3.631,1.357A0.164,0.164,0,0,0,3.6,1.334S3.593,1.326,3.589,1.322,3.574,1.31,3.567,1.3a0.328,0.328,0,0,0-.03-0.02s-0.007,0-.011-0.008L3.477,1.252,0.706,0.041A0.5,0.5,0,0,0,.04.322a0.534,0.534,0,0,0,.271.691L2.77,2.091V13.642a2.132,2.132,0,0,0,1.808,2.136,2.192,2.192,0,0,0-.293,1.093A2.092,2.092,0,0,0,6.334,19a2.1,2.1,0,0,0,2.049-2.128A2.15,2.15,0,0,0,8.1,15.8h4.564a2.161,2.161,0,0,0-.282,1.074,2.05,2.05,0,1,0,2.049-2.128H4.845a1.082,1.082,0,0,1-1.06-1.1V12.213A2.04,2.04,0,0,0,4.845,12.51Zm2.526,4.358a1.035,1.035,0,1,1-1.034-1.074A1.056,1.056,0,0,1,7.372,16.868Zm8.1,0a1.035,1.035,0,1,1-1.034-1.074A1.056,1.056,0,0,1,15.47,16.868Zm-0.545-5.412H4.845a1.082,1.082,0,0,1-1.06-1.1v-5.7L15.985,6.4V10.35A1.083,1.083,0,0,1,14.925,11.455Z" transform="translate(1.5 0.5)"/>
</svg>
