<svg xmlns="http://www.w3.org/2000/svg" xmlns:xlink="http://www.w3.org/1999/xlink" viewBox="0 0 72 72"><defs><style>.cls-1,.cls-4{fill:none;}.cls-2{clip-path:url(#clip-path);}.cls-3{fill:#fff;}.cls-4{stroke:#fff;stroke-miterlimit:10;stroke-width:3px;}.cls-5{fill:lime;}</style><clipPath id="clip-path"><rect class="cls-1" width="72" height="72"/></clipPath></defs><title>Contact-us</title><g id="BG"><g class="cls-2"><path class="cls-3" d="M3.65,14.07,31,41.44l3.94,3.94a1.52,1.52,0,0,0,2.12,0L64.17,18.26l4-4A1.5,1.5,0,0,0,66,12.17L38.9,39.29l-4,4h2.12L9.71,15.89,5.77,12a1.5,1.5,0,0,0-2.12,2.12Z"/><path class="cls-3" d="M64.81,60.83H9.12c-1.79,0-3.27,0-3.43-2.18-.21-3,0-6,0-9V20.92c0-2.47-.35-5.23,0-7.69C6,11,8.32,11.51,10,11.51H61.17c1.63,0,4.74-.64,5.14,1.55.37,2,0,4.49,0,6.55V58.19c0,1.12.15,2.47-1.5,2.64-1.91.19-1.92,3.19,0,3,4.14-.42,4.5-3.68,4.5-7V15.61c0-3-.07-6.45-3.9-7a38.88,38.88,0,0,0-5.79-.06H30c-7.48,0-15-.26-22.49,0-3.22.11-4.81,2.3-4.86,5.32-.05,3.38,0,6.77,0,10.16V54.28c0,2.17-.55,5.52.71,7.46,1.57,2.43,4.33,2.08,6.81,2.08h54.6A1.5,1.5,0,0,0,64.81,60.83Z"/><line class="cls-4" x1="66.48" y1="61.24" x2="44.67" y2="35.64"/><line class="cls-4" x1="27.33" y1="35.64" x2="5.52" y2="61.24"/></g></g><g id="Android"><path class="cls-5" d="M5277.23-2384.45H7180.65c135.28,0,249.59,85.72,252.32,229.41,1.24,65.36,0,130.86,0,196.22V6494.88c0,88,.26,175.93,0,263.89-.31,108.13-59.23,207.91-169.16,237-34.08,9-68.47,7.59-103.23,7.59H64.37c-20.72,0-41.5.43-62.22,0-132.11-2.73-227.35-107.14-228.25-236.86-.55-78.94,0-157.91,0-236.86V-1927.31c0-74.46-.66-149,0-223.42,1.18-133,102.79-232.68,235.24-233.73,81.2-.64,162.43,0,243.64,0H1840.83c23.16,0,23.2-36,0-36H210.65c-69.31,0-138.77-1.38-208.07,0-148.67,3-262.26,119.55-264.68,267.46-1.18,72,0,144,0,216V6557.44c0,71.5-1.29,143.14,0,214.63,2.66,147.37,115.53,264.09,263.92,267.24,20.18.43,40.42,0,60.61,0h7111.9c64.31,0,126.4-8.69,181.19-47,77.78-54.39,113.17-140.24,113.46-232.62.27-87.67,0-175.35,0-263v-8489c0-58.89,2.95-118.62-.34-177.46-6.08-108.81-79.25-204.78-183.25-238.22-35.53-11.42-71.64-12.39-108.35-12.39H5277.23c-23.16,0-23.2,36,0,36Z"/></g></svg>