<svg xmlns="http://www.w3.org/2000/svg" width="30" height="30" viewBox="0 0 30 30">
    <path fill="#C40000" fill-rule="nonzero" d="M7.286 24.333C7.286 25.8 8.443 27 9.857 27h10.286c1.414 0 2.571-1.2 2.571-2.667v-16H7.286v16zM24 4.333V7H6V4.333h4.5L11.786 3h6.428L19.5 4.333H24zm-9.538 7.898h1.076c.255 0 .462.206.462.461V23.77a.462.462 0 0 1-.462.462h-1.076a.462.462 0 0 1-.462-.462V12.692c0-.255.207-.461.462-.461zm4 0h1.076c.255 0 .462.206.462.461V23.77a.462.462 0 0 1-.462.462h-1.076a.462.462 0 0 1-.462-.462V12.692c0-.255.207-.461.462-.461zm-7.95 0h1.076c.255 0 .462.206.462.461V23.77a.462.462 0 0 1-.462.462h-1.076a.462.462 0 0 1-.462-.462V12.692c0-.255.207-.461.462-.461z"/>
</svg>
