<svg xmlns="http://www.w3.org/2000/svg" width="40" height="40" viewBox="0 0 40 40">
  <metadata><?xpacket begin="﻿" id="W5M0MpCehiHzreSzNTczkc9d"?>
<x:xmpmeta xmlns:x="adobe:ns:meta/" x:xmptk="Adobe XMP Core 5.6-c142 79.160924, 2017/07/13-01:06:39        ">
   <rdf:RDF xmlns:rdf="http://www.w3.org/1999/02/22-rdf-syntax-ns#">
      <rdf:Description rdf:about=""/>
   </rdf:RDF>
</x:xmpmeta>
                                                                                                    
                                                                                                    
                                                                                                    
                                                                                                    
                                                                                                    
                                                                                                    
                                                                                                    
                                                                                                    
                                                                                                    
                                                                                                    
                                                                                                    
                                                                                                    
                                                                                                    
                                                                                                    
                                                                                                    
                                                                                                    
                                                                                                    
                                                                                                    
                                                                                                    
                                                                                                    
                           
<?xpacket end="w"?></metadata>
<defs>
    <style>
      .cls-1 {
        fill: #fff;
        stroke: #cacaca;
        stroke-width: 1px;
      }

      .cls-2 {
        fill: #f26225;
        fill-rule: evenodd;
      }
    </style>
  </defs>
  <rect id="Rectangle_520_copy" data-name="Rectangle 520 copy" class="cls-1" width="40" height="40" rx="10" ry="10"/>
  <path class="cls-2" d="M28,16H27V28a2,2,0,0,1-2,2H16a2,2,0,0,1-2-2V16H12V15h1a2,2,0,0,1,2-2h2V11a1,1,0,0,1,1-1h5a1,1,0,0,1,1,1v2h2a2,2,0,0,1,2,2h1v1H28Zm-6-4H19v1h3V12Zm-7,4V28a1,1,0,0,0,1,1h9a1,1,0,0,0,1-1V16H15Zm8.5,11a0.5,0.5,0,0,1-.5-0.5v-8a0.5,0.5,0,0,1,1,0v8A0.5,0.5,0,0,1,23.5,27Zm-3,0a0.5,0.5,0,0,1-.5-0.5v-8a0.5,0.5,0,0,1,1,0v8A0.5,0.5,0,0,1,20.5,27Zm-3,0a0.5,0.5,0,0,1-.5-0.5v-8a0.5,0.5,0,0,1,1,0v8A0.5,0.5,0,0,1,17.5,27Z"/>
</svg>
