<svg xmlns="http://www.w3.org/2000/svg" xmlns:xlink="http://www.w3.org/1999/xlink" viewBox="0 0 64 64"><defs><style>.cls-1,.cls-4{fill:none;}.cls-2{fill:lime;}.cls-3{clip-path:url(#clip-path);}.cls-4{stroke:#fff;stroke-miterlimit:10;stroke-width:3px;}.cls-5{fill:#fff;}</style><clipPath id="clip-path"><rect class="cls-1" width="64" height="64"/></clipPath></defs><title>Downloaded-Article150</title><g id="Android"><path class="cls-2" d="M4771.92-5282.29H6675.35c141.93,0,261.47,91.19,264.32,241.41,1.24,65.35,0,130.85,0,196.22V3609c0,88,.25,175.93,0,263.89-.33,113.47-62.92,218.05-178,248.53-35.26,9.34-70.51,8-106.42,8H-440.94c-20.72,0-41.5.43-62.22,0-138.66-2.87-239.31-112.52-240.25-248.86-.55-78.94,0-157.91,0-236.86v-8456.9c0-74.47-.66-149,0-223.42,1.24-139.49,108.25-244.63,247.24-245.73,81.2-.65,162.44,0,243.64,0H1335.52c7.73,0,7.74-12,0-12H-294.66c-69.31,0-138.77-1.38-208.07,0-142.12,2.83-250.37,114.12-252.68,255.46-1.18,72,0,144,0,216V3671.6c0,71.5-1.29,143.14,0,214.63,2.54,140.79,110.09,252.23,251.92,255.25,20.19.43,40.42,0,60.61,0H6669c62.23,0,122.11-8.07,175.14-45.37,74.16-52.19,107.23-134.16,107.51-222.26.27-87.67,0-175.35,0-263v-8489c0-58.89,2.94-118.62-.34-177.47-5.78-103.33-75.71-194.9-174.45-226.65-34.55-11.11-69.48-12-105.16-12H4771.92c-7.72,0-7.73,12,0,12Z"/></g><g id="Slide_menu_bar" data-name="Slide menu bar"><g class="cls-3"><path class="cls-4" d="M39.67,59.65H8.31A4.31,4.31,0,0,1,4,55.34V7.83A4.31,4.31,0,0,1,8.31,3.52H29.5a1.88,1.88,0,0,1,1.37.59L41.92,15.59a1.93,1.93,0,0,1,.53,1.33V28.23"/><path class="cls-5" d="M18.92,26.06V14.12a1.5,1.5,0,0,0-3,0V26.06a1.5,1.5,0,0,0,3,0Z"/><path class="cls-5" d="M18.48,27.12l5.38-5.38a1.5,1.5,0,0,0-2.12-2.12L16.36,25a1.5,1.5,0,0,0,2.12,2.12Z"/><path class="cls-5" d="M18.48,25l-5.39-5.38A1.5,1.5,0,0,0,11,21.74l5.39,5.38A1.5,1.5,0,0,0,18.48,25Z"/><path class="cls-5" d="M10.54,34.46H24.29a1.5,1.5,0,0,0,0-3H10.54a1.5,1.5,0,0,0,0,3Z"/><path class="cls-5" d="M50.42,38.31,40.7,48h2.12l-4.67-4.68A1.5,1.5,0,0,0,36,45.47l4.68,4.68a1.53,1.53,0,0,0,2.12,0l9.72-9.72a1.5,1.5,0,0,0-2.12-2.12Z"/><path class="cls-5" d="M10.54,43h9a1.5,1.5,0,0,0,0-3h-9a1.5,1.5,0,0,0,0,3Z"/><path class="cls-5" d="M55.1,34.42a14.61,14.61,0,1,1-20.63-1,14.77,14.77,0,0,1,20.63,1c1.34,1.39,3.46-.73,2.12-2.12a17.6,17.6,0,1,0,1.15,22.47A17.79,17.79,0,0,0,57.22,32.3C56,30.84,53.84,33,55.1,34.42Z"/><path class="cls-5" d="M41.71,14.65H30.31l1.5,1.5V3.93a1.5,1.5,0,0,0-3,0V16.15a1.52,1.52,0,0,0,1.5,1.5h11.4a1.5,1.5,0,0,0,0-3Z"/></g></g></svg>