<svg id="Group_2_copy" data-name="Group 2 copy" xmlns="http://www.w3.org/2000/svg" width="40" height="40" viewBox="0 0 40 40">
  <metadata><?xpacket begin="﻿" id="W5M0MpCehiHzreSzNTczkc9d"?>
<x:xmpmeta xmlns:x="adobe:ns:meta/" x:xmptk="Adobe XMP Core 5.6-c142 79.160924, 2017/07/13-01:06:39        ">
   <rdf:RDF xmlns:rdf="http://www.w3.org/1999/02/22-rdf-syntax-ns#">
      <rdf:Description rdf:about=""/>
   </rdf:RDF>
</x:xmpmeta>
                                                                                                    
                                                                                                    
                                                                                                    
                                                                                                    
                                                                                                    
                                                                                                    
                                                                                                    
                                                                                                    
                                                                                                    
                                                                                                    
                                                                                                    
                                                                                                    
                                                                                                    
                                                                                                    
                                                                                                    
                                                                                                    
                                                                                                    
                                                                                                    
                                                                                                    
                                                                                                    
                           
<?xpacket end="w"?></metadata>
<defs>
    <style>
      .cls-1 {
        fill: #fff;
        stroke: #cacaca;
        stroke-width: 1px;
      }

      .cls-2 {
        fill: #f26225;
        fill-rule: evenodd;
      }
    </style>
  </defs>
  <rect id="Rectangle_520_copy_3" data-name="Rectangle 520 copy 3" class="cls-1" width="40" height="40" rx="10" ry="10"/>
  <path class="cls-2" d="M26.4,25.043H24v-2h1.667c2.946,0,5.333-2.095,5.333-4.679a4.521,4.521,0,0,0-2.192-3.781C28.564,11.465,25.61,9.006,22,9.006c-3.255,0-6.316,2.336-7,5.011-2.771.347-6,1.758-6,4.342s1.6,4.737,6.333,4.679H18v2H13.6c-3.647,0-6.6-2.694-6.6-6.016s2.956-6.017,6.6-6.017h0.009A8.318,8.318,0,0,1,21.857,7c4.47,0,8.127,3.162,8.429,7.165A5.858,5.858,0,0,1,33,19.027C33,22.35,30.044,25.043,26.4,25.043Zm-6.392-6h1.981L22.017,29.2l4.024-2.969v2.807L21.011,33l-5.03-3.962V26.23L20.005,29.2V19.045Z"/>
</svg>
