<svg xmlns="http://www.w3.org/2000/svg" xmlns:xlink="http://www.w3.org/1999/xlink" viewBox="0 0 72 72"><defs><style>.cls-1{fill:none;}.cls-2{clip-path:url(#clip-path);}.cls-3{fill:#fff;}.cls-4{fill:lime;}</style><clipPath id="clip-path"><rect class="cls-1" width="72" height="72"/></clipPath></defs><title>Home</title><g id="BG"><g class="cls-2"><path class="cls-3" d="M57.85,30.46v37l1.5-1.5H12.65l1.5,1.5v-37a1.5,1.5,0,0,0-3,0v37a1.52,1.52,0,0,0,1.5,1.5H59.35a1.52,1.52,0,0,0,1.5-1.5v-37a1.5,1.5,0,0,0-3,0Z"/><path class="cls-3" d="M4.06,41.44,32.93,10l4.13-4.49H34.94L63.81,36.95l4.13,4.49c1.31,1.42,3.43-.7,2.12-2.12L41.19,7.93,37.06,3.44a1.51,1.51,0,0,0-2.12,0L6.07,34.83,1.94,39.31c-1.3,1.42.81,3.55,2.12,2.12Z"/><path class="cls-3" d="M29.48,67.5V57.24c0-3.22-.64-7.59,1-10.52a6.39,6.39,0,0,1,10.09-1.43c2.54,2.63,2,6.72,2,10.08V67.5a1.5,1.5,0,0,0,3,0V54.93c0-4.08.27-8.37-2.73-11.61a9.43,9.43,0,0,0-12.18-1.21c-3.77,2.68-4.12,7-4.12,11.22V67.5a1.5,1.5,0,0,0,3,0Z"/></g></g><g id="Android"><path class="cls-4" d="M5273.7-1214.21H7177.12c135.28,0,249.59,85.72,252.32,229.41,1.24,65.36,0,130.86,0,196.22V7665.12c0,88,.26,175.93,0,263.89-.31,108.13-59.23,207.91-169.16,237-34.08,9-68.47,7.59-103.23,7.59H60.84c-20.72,0-41.5.43-62.22,0-132.11-2.73-227.35-107.14-228.25-236.86-.55-78.94,0-157.91,0-236.86V-757.06c0-74.46-.66-149,0-223.42,1.18-133,102.79-232.68,235.24-233.73,81.2-.64,162.43,0,243.64,0H1837.3c23.16,0,23.2-36,0-36H207.12c-69.31,0-138.77-1.38-208.07,0-148.67,3-262.26,119.55-264.68,267.46-1.18,72,0,144,0,216V7727.69c0,71.5-1.29,143.14,0,214.63C-263,8089.68-150.1,8206.4-1.71,8209.56c20.18.43,40.42,0,60.61,0h7111.9c64.31,0,126.4-8.69,181.19-47,77.78-54.39,113.17-140.24,113.46-232.62.27-87.67,0-175.35,0-263v-8489c0-58.89,2.95-118.62-.34-177.46-6.08-108.81-79.25-204.78-183.25-238.22-35.53-11.42-71.64-12.39-108.35-12.39H5273.7c-23.16,0-23.2,36,0,36Z"/></g></svg>