<svg xmlns="http://www.w3.org/2000/svg" xmlns:xlink="http://www.w3.org/1999/xlink" viewBox="0 0 80 80"><defs><style>.cls-1,.cls-4{fill:none;}.cls-2{clip-path:url(#clip-path);}.cls-3{fill:#fff;}.cls-4{stroke:#fff;stroke-miterlimit:10;stroke-width:2px;}</style><clipPath id="clip-path"><rect class="cls-1" width="80" height="80"/></clipPath></defs><title>icon</title><g id="Color_2" data-name="Color 2"><g class="cls-2"><path class="cls-3" d="M45,71H74a1,1,0,0,0,1-1V40a1,1,0,0,0-1-1H59.51l1,1V25.56a1,1,0,0,0-1-1H45a1,1,0,0,0-1,1V39.17a1,1,0,0,0,2,0V25.56l-1,1H59.51l-1-1V40a1,1,0,0,0,1,1H74l-1-1V70l1-1H45a1,1,0,0,0,0,2Z"/><path class="cls-3" d="M44.51,42.32l-5,2.68,1.49.87V10.07l-1.49.87,5,2.43L44,12.5V43.19a1,1,0,0,0,2,0V12.5a1,1,0,0,0-.51-.87l-5-2.43a1,1,0,0,0-1.49.87v35.8a1,1,0,0,0,1.49.87l5-2.68C46.63,43.46,45.64,41.72,44.51,42.32Z"/><path class="cls-3" d="M23.92,45.49l-5,3,1.49.87V25.56l-1.49.87,5,2.41L23.42,28V46.36a1,1,0,0,0,2,0V28a1,1,0,0,0-.51-.87l-5-2.41a1,1,0,0,0-1.49.87V49.38a1,1,0,0,0,1.49.87l5-3C26,46.57,25,44.83,23.92,45.49Z"/><rect class="cls-4" x="44.67" y="60.62" width="6.27" height="9.37" rx="0.67" ry="0.67"/><path class="cls-3" d="M3.64,49.38V70a1,1,0,0,0,1,1H57a1,1,0,0,0,1-1V49.38a1,1,0,0,0-1-1H49l1,1V40.47a1,1,0,0,0-1.49-.87L33.69,48.51c-1.1.66-.12,2.4,1,1.74l14.77-8.91L48,40.47v8.91a1,1,0,0,0,1,1H57l-1-1V70l1-1H4.64l1,1V49.38a1,1,0,0,0-2,0Z"/><path class="cls-3" d="M20.42,49.38V40.47a1,1,0,0,0-1.49-.87L4.15,48.51c-1.1.66-.12,2.4,1,1.74l14.77-8.91-1.49-.87v8.91a1,1,0,0,0,2,0Z"/><path class="cls-3" d="M35.19,49.38V40.47a1,1,0,0,0-1.49-.87L18.92,48.51c-1.1.66-.12,2.4,1,1.74l14.77-8.91-1.49-.87v8.91a1,1,0,0,0,2,0Z"/><rect class="cls-3" x="47.81" y="29.57" width="3.04" height="4.65" rx="0.67" ry="0.67"/><rect class="cls-3" x="52.7" y="29.57" width="3.04" height="4.65" rx="0.67" ry="0.67"/><rect class="cls-3" x="62.07" y="45.45" width="3.04" height="4.65" rx="0.67" ry="0.67"/><rect class="cls-3" x="66.96" y="45.45" width="3.04" height="4.65" rx="0.67" ry="0.67"/><rect class="cls-3" x="8.06" y="55.97" width="3.04" height="4.65" rx="0.67" ry="0.67"/><rect class="cls-3" x="16.19" y="55.97" width="3.04" height="4.65" rx="0.67" ry="0.67"/><rect class="cls-3" x="26.53" y="55.97" width="3.04" height="4.65" rx="0.67" ry="0.67"/><rect class="cls-3" x="34.66" y="55.97" width="3.04" height="4.65" rx="0.67" ry="0.67"/><path class="cls-3" d="M45,8c2.59-2.63,6.44-.13,9.44.18a6,6,0,0,0,5.5-2c.8-1-.61-2.42-1.41-1.41-2.39,3-6.33.55-9.31.14a6.34,6.34,0,0,0-5.64,1.66c-.9.92.51,2.33,1.41,1.41Z"/><path class="cls-3" d="M24.28,22c1.46-1.44,3.9.14,5.6.24a3.91,3.91,0,0,0,3.35-1.33c.82-1-.59-2.41-1.41-1.41-1.37,1.65-3.81.1-5.52-.06a4.13,4.13,0,0,0-3.43,1.14c-.92.9.5,2.32,1.41,1.41Z"/></g></g></svg>