<svg xmlns="http://www.w3.org/2000/svg" xmlns:xlink="http://www.w3.org/1999/xlink" viewBox="0 0 64 64"><defs><style>.cls-1{fill:none;}.cls-2{clip-path:url(#clip-path);}.cls-3{fill:#fff;}.cls-4{fill:lime;}</style><clipPath id="clip-path"><rect class="cls-1" width="64" height="64"/></clipPath></defs><title>Insights Navigator</title><g id="BG"><g class="cls-2"><path class="cls-3" d="M30.83,49.62l0,5.28a1.5,1.5,0,0,0,3,0l0-5.28a1.5,1.5,0,0,0-3,0Z"/><path class="cls-3" d="M48.72,36.13h5.7a1.5,1.5,0,0,0,0-3h-5.7a1.5,1.5,0,0,0,0,3Z"/><path class="cls-3" d="M9.18,36.13l6.11,0a1.5,1.5,0,0,0,0-3l-6.11,0a1.5,1.5,0,0,0,0,3Z"/><path class="cls-3" d="M15.54,50.18l4.08-4.36c1.32-1.41-.8-3.53-2.12-2.12l-4.08,4.36c-1.32,1.41.8,3.53,2.12,2.12Z"/><path class="cls-3" d="M43.93,45.86l4.07,4c1.38,1.35,3.51-.77,2.12-2.12l-4.07-4c-1.38-1.35-3.51.77-2.12,2.12l4.07,4c1.38,1.35,3.51-.77,2.12-2.12l-4.07-4C44.67,42.39,42.54,44.51,43.93,45.86Z"/><path class="cls-3" d="M33.59,57.62c-.11.63-.45,1.28-1.2,1.24a1.19,1.19,0,0,1-1.05-1.37,1.14,1.14,0,0,1,1.25-1c.79.11,1,.86.95,1.55-.14,1.93,2.86,1.92,3,0a4.22,4.22,0,0,0-3.76-4.54,4.16,4.16,0,0,0-4.41,3.65,4.22,4.22,0,0,0,3.35,4.68,4.16,4.16,0,0,0,4.77-3.41C36.83,56.49,33.93,55.71,33.59,57.62Z"/><path class="cls-3" d="M52.2,51c-.33,1.61-2.52,1.37-2.23-.27a1.13,1.13,0,0,1,1.31-1c.78.16.94.93.87,1.61-.19,1.92,2.81,1.91,3,0a4.2,4.2,0,0,0-3.68-4.6A4.15,4.15,0,0,0,47,50.39a4.23,4.23,0,0,0,3.27,4.74,4.17,4.17,0,0,0,4.83-3.33C55.49,49.93,52.59,49.15,52.2,51Z"/><path class="cls-3" d="M59.18,35.06c-.33,1.61-2.52,1.37-2.23-.27a1.13,1.13,0,0,1,1.31-1c.78.16.94.93.87,1.61-.19,1.92,2.81,1.91,3,0a4.2,4.2,0,0,0-3.68-4.6A4.15,4.15,0,0,0,54,34.4a4.23,4.23,0,0,0,3.27,4.74,4.17,4.17,0,0,0,4.83-3.33C62.48,33.94,59.58,33.16,59.18,35.06Z"/><path class="cls-3" d="M13.7,51c-.33,1.61-2.52,1.37-2.23-.27a1.13,1.13,0,0,1,1.31-1c.78.16.94.93.87,1.61-.19,1.92,2.81,1.91,3,0A4.2,4.2,0,0,0,13,46.78,4.15,4.15,0,0,0,8.5,50.34a4.23,4.23,0,0,0,3.27,4.74,4.17,4.17,0,0,0,4.83-3.33C17,49.88,14.09,49.1,13.7,51Z"/><path class="cls-3" d="M7.42,35c-.33,1.61-2.52,1.37-2.23-.27a1.13,1.13,0,0,1,1.31-1c.78.16.94.93.87,1.61-.19,1.92,2.81,1.91,3,0a4.2,4.2,0,0,0-3.68-4.6,4.15,4.15,0,0,0-4.47,3.56A4.23,4.23,0,0,0,5.5,39.06a4.17,4.17,0,0,0,4.83-3.33C10.71,33.85,7.81,33.08,7.42,35Z"/><path class="cls-3" d="M12.14,25.42A20.07,20.07,0,0,1,32,5.57,20.07,20.07,0,0,1,51.86,25.42c0,1.93,3,1.93,3,0A23.12,23.12,0,0,0,32,2.57,23.12,23.12,0,0,0,9.14,25.42a1.5,1.5,0,0,0,3,0Z"/><path class="cls-3" d="M47.22,34.53a15.32,15.32,0,0,1-30.43,0c-.24-1.89-3.24-1.91-3,0A18.55,18.55,0,0,0,32,51.12,18.54,18.54,0,0,0,50.22,34.53c.23-1.91-2.77-1.9-3,0Z"/><path class="cls-3" d="M26.69,32.78,29,28.52l1.53-2.76c.15-.27,1.17-1.82.55-1.2s.94-.4,1.2-.55l2.76-1.53,4.26-2.36-2-2L35,22.32l-1.53,2.76c-.15.27-1.17,1.82-.55,1.2s-.94.4-1.2.55L28.9,28.37l-4.26,2.36a1.5,1.5,0,0,0,1.48,2.61l4.68-2.59c1.26-.7,3.12-1.33,4.15-2.37s1.67-2.9,2.37-4.15l2.59-4.68a1.51,1.51,0,0,0-2-2L33.19,20.1c-1.26.7-3.12,1.33-4.15,2.37s-1.67,2.9-2.37,4.15L24.08,31.3A1.5,1.5,0,0,0,26.69,32.78Z"/><path class="cls-3" d="M30.3,4.62V8a1.5,1.5,0,0,0,3,0V4.62a1.5,1.5,0,0,0-3,0Z"/><path class="cls-3" d="M44.42,8.52,42.2,11.07a1.54,1.54,0,0,0,0,2.12,1.51,1.51,0,0,0,2.12,0l2.21-2.55a1.54,1.54,0,0,0,0-2.12,1.51,1.51,0,0,0-2.12,0Z"/><path class="cls-3" d="M16,12l2.41,2.37a1.5,1.5,0,1,0,2.12-2.12L18.09,9.92A1.5,1.5,0,0,0,16,12Z"/><path class="cls-3" d="M53.08,23.93H49.7a1.5,1.5,0,0,0,0,3h3.38a1.5,1.5,0,0,0,0-3Z"/><path class="cls-3" d="M11.2,26.91l3.38,0a1.5,1.5,0,0,0,0-3l-3.38,0a1.5,1.5,0,0,0,0,3Z"/></g></g><g id="Android"><path class="cls-4" d="M2154.53-1438.93H4058c135.28,0,249.59,85.72,252.32,229.41,1.24,65.36,0,130.86,0,196.22V7440.4c0,88,.26,175.93,0,263.89-.31,108.13-59.23,207.91-169.16,237-34.08,9-68.47,7.59-103.23,7.59H-3058.33c-20.72,0-41.5.43-62.22,0-132.11-2.73-227.35-107.14-228.25-236.86-.55-78.94,0-157.91,0-236.86V-981.78c0-74.46-.66-149,0-223.42,1.18-133,102.79-232.68,235.24-233.73,81.2-.64,162.43,0,243.64,0h1588.06c23.16,0,23.2-36,0-36H-2912c-69.31,0-138.77-1.38-208.07,0-148.67,3-262.26,119.55-264.68,267.46-1.18,72,0,144,0,216V7503c0,71.5-1.29,143.14,0,214.63,2.66,147.37,115.53,264.09,263.92,267.24,20.18.43,40.42,0,60.61,0h7111.9c64.31,0,126.4-8.69,181.19-47,77.78-54.39,113.17-140.24,113.46-232.62.27-87.67,0-175.35,0-263v-8489c0-58.89,2.95-118.62-.34-177.46-6.08-108.81-79.25-204.78-183.25-238.22-35.53-11.42-71.64-12.39-108.35-12.39H2154.53c-23.16,0-23.2,36,0,36Z"/></g></svg>