<svg xmlns="http://www.w3.org/2000/svg" xmlns:xlink="http://www.w3.org/1999/xlink" viewBox="0 0 72 72"><defs><style>.cls-1{fill:none;}.cls-2{clip-path:url(#clip-path);}.cls-3{fill:#fff;}.cls-4{fill:lime;}</style><clipPath id="clip-path"><rect class="cls-1" width="72" height="72"/></clipPath></defs><title>Logout</title><g id="BG"><g class="cls-2"><path class="cls-3" d="M53.55,24.74,66,36.67V34.55L53.55,46.47c-1.4,1.33.73,3.46,2.12,2.12L68.14,36.67a1.52,1.52,0,0,0,0-2.12L55.67,22.62c-1.39-1.33-3.52.78-2.12,2.12Z"/><path class="cls-3" d="M67.08,34.11H27a1.5,1.5,0,0,0,0,3h40.1a1.5,1.5,0,0,0,0-3Z"/><path class="cls-3" d="M44.51,52.63V67.39l1.5-1.5H4.76l1.5,1.5V4.76l-1.5,1.5H46l-1.5-1.5V20.32a1.5,1.5,0,0,0,3,0V4.76A1.52,1.52,0,0,0,46,3.26H4.76a1.52,1.52,0,0,0-1.5,1.5V67.39a1.52,1.52,0,0,0,1.5,1.5H46a1.52,1.52,0,0,0,1.5-1.5V52.63a1.5,1.5,0,0,0-3,0Z"/></g></g><g id="Android"><path class="cls-4" d="M5277.23-2674.27H7180.65c135.28,0,249.59,85.72,252.32,229.41,1.24,65.36,0,130.86,0,196.22V6205.06c0,88,.26,175.93,0,263.89-.31,108.13-59.23,207.91-169.16,237-34.08,9-68.47,7.59-103.23,7.59H64.37c-20.72,0-41.5.43-62.22,0-132.11-2.73-227.35-107.14-228.25-236.86-.55-78.94,0-157.91,0-236.86V-2217.12c0-74.46-.66-149,0-223.42,1.18-133,102.79-232.68,235.24-233.73,81.2-.64,162.43,0,243.64,0H1840.83c23.16,0,23.2-36,0-36H210.65c-69.31,0-138.77-1.38-208.07,0-148.67,3-262.26,119.55-264.68,267.46-1.18,72,0,144,0,216V6267.63c0,71.5-1.29,143.14,0,214.63,2.66,147.37,115.53,264.09,263.92,267.24,20.18.43,40.42,0,60.61,0h7111.9c64.31,0,126.4-8.69,181.19-47,77.78-54.39,113.17-140.24,113.46-232.62.27-87.67,0-175.35,0-263v-8489c0-58.89,2.95-118.62-.34-177.46-6.08-108.81-79.25-204.78-183.25-238.22-35.53-11.42-71.64-12.39-108.35-12.39H5277.23c-23.16,0-23.2,36,0,36Z"/></g></svg>