<svg xmlns="http://www.w3.org/2000/svg" xmlns:xlink="http://www.w3.org/1999/xlink" viewBox="0 0 72 72"><defs><style>.cls-1{fill:none;}.cls-2{clip-path:url(#clip-path);}.cls-3{fill:#fff;}.cls-4{fill:lime;}</style><clipPath id="clip-path"><rect class="cls-1" width="72" height="72"/></clipPath></defs><title>My-Libraris</title><g id="BG"><g class="cls-2"><path class="cls-3" d="M65.61,65.69H18.25c-3.64,0-7.4-.12-9.1-4.12a6.81,6.81,0,0,1,4.29-9.12,10.64,10.64,0,0,1,3.13-.28h49l-1.3-2.24c-3.56,5.94-5.41,13.06.24,18.32,1.41,1.31,3.54-.8,2.12-2.12-4.62-4.31-2.61-10,.24-14.72a1.51,1.51,0,0,0-1.3-2.24c-16.42,0-32.85-.08-49.27,0-4.77,0-9.24,2.45-10.45,7.4a9.9,9.9,0,0,0,9.58,12.13c7.91.25,15.86,0,23.77,0H65.61A1.5,1.5,0,0,0,65.61,65.69Z"/><path class="cls-3" d="M8.89,57.24,8.62,19.69c0-2.54-.1-5,1.08-7.36,2-4,5.85-5.86,10.13-5.88,6.56,0,13.13,0,19.7,0H58.38L56.92,5.33l6.31,39.91.92,5.81c.3,1.91,3.2,1.13,2.9-.76L60.74,10.38l-.92-5.81a1.51,1.51,0,0,0-1.45-1.12c-12.75,0-25.49,0-38.24,0-8.1,0-14.51,5.71-14.53,14,0,6.55.09,13.11.14,19.66l.14,20.11a1.5,1.5,0,0,0,3,0Z"/><path class="cls-3" d="M52.12,20.22l-7.45-6a1.53,1.53,0,0,0-2.12,0l-6,6,2.56,1.06L37.26,5l-1.5,1.5h12L46.36,5.33l3.26,16.33c.38,1.9,3.28,1.13,2.9-.76L49.26,4.57a1.52,1.52,0,0,0-1.45-1.12h-12A1.51,1.51,0,0,0,34.26,5l1.9,16.33a1.52,1.52,0,0,0,2.56,1.06l6-6H42.55l7.45,6C51.48,23.55,53.62,21.44,52.12,20.22Z"/><path class="cls-3" d="M22.22,34.57H49.3a1.5,1.5,0,0,0,0-3H22.22a1.5,1.5,0,0,0,0,3Z"/><path class="cls-3" d="M22.22,41.47H37a1.5,1.5,0,0,0,0-3H22.22a1.5,1.5,0,0,0,0,3Z"/></g></g><g id="Android"><path class="cls-4" d="M5273.7-1793.94H7177.12c135.28,0,249.59,85.72,252.32,229.41,1.24,65.36,0,130.86,0,196.22V7085.4c0,88,.26,175.93,0,263.89-.31,108.13-59.23,207.91-169.16,237-34.08,9-68.47,7.59-103.23,7.59H60.84c-20.72,0-41.5.43-62.22,0-132.11-2.73-227.35-107.14-228.25-236.86-.55-78.94,0-157.91,0-236.86V-1336.79c0-74.46-.66-149,0-223.42,1.18-133,102.79-232.68,235.24-233.73,81.2-.64,162.43,0,243.64,0H1837.3c23.16,0,23.2-36,0-36H207.12c-69.31,0-138.77-1.38-208.07,0-148.67,3-262.26,119.55-264.68,267.46-1.18,72,0,144,0,216V7148c0,71.5-1.29,143.14,0,214.63C-263,7510-150.1,7626.68-1.71,7629.83c20.18.43,40.42,0,60.61,0h7111.9c64.31,0,126.4-8.69,181.19-47,77.78-54.39,113.17-140.24,113.46-232.62.27-87.67,0-175.35,0-263v-8489c0-58.89,2.95-118.62-.34-177.46-6.08-108.81-79.25-204.78-183.25-238.22-35.53-11.42-71.64-12.39-108.35-12.39H5273.7c-23.16,0-23.2,36,0,36Z"/></g></svg>