<svg xmlns="http://www.w3.org/2000/svg" width="19" height="19" viewBox="0 0 19 19">
  <metadata><?xpacket begin="﻿" id="W5M0MpCehiHzreSzNTczkc9d"?>
<x:xmpmeta xmlns:x="adobe:ns:meta/" x:xmptk="Adobe XMP Core 5.6-c142 79.160924, 2017/07/13-01:06:39        ">
   <rdf:RDF xmlns:rdf="http://www.w3.org/1999/02/22-rdf-syntax-ns#">
      <rdf:Description rdf:about=""/>
   </rdf:RDF>
</x:xmpmeta>
                                                                                                    
                                                                                                    
                                                                                                    
                                                                                                    
                                                                                                    
                                                                                                    
                                                                                                    
                                                                                                    
                                                                                                    
                                                                                                    
                                                                                                    
                                                                                                    
                                                                                                    
                                                                                                    
                                                                                                    
                                                                                                    
                                                                                                    
                                                                                                    
                                                                                                    
                                                                                                    
                           
<?xpacket end="w"?></metadata>
<defs>
    <style>
      .cls-1 {
        fill: #fff;
        fill-rule: evenodd;
      }
    </style>
  </defs>
  <path class="cls-1" d="M3.855,17.464a1.636,1.636,0,0,1-2.367,0,1.77,1.77,0,0,1,0-2.446L4.97,11.449a7.254,7.254,0,0,1-.812-3.294,7.036,7.036,0,0,1,6.919-7.148A7.036,7.036,0,0,1,18,8.155,7.036,7.036,0,0,1,11.077,15.3a6.728,6.728,0,0,1-3.9-1.245ZM7.18,14.058,11.09,1.977A6.068,6.068,0,0,0,5.123,8.142a6.068,6.068,0,0,0,5.967,6.165,6.068,6.068,0,0,0,5.967-6.165A6.068,6.068,0,0,0,11.09,1.977ZM8.572,4.771h1.886l-0.943.943v4.714h3.771V7.6H11.4V4.771l2.829,1.886v4.714H8.572v-6.6ZM6.438,13.426a6.05,6.05,0,0,1-.962-1.1L2.164,15.717a0.759,0.759,0,0,0,0,1.048,0.7,0.7,0,0,0,1.015,0l3.26-3.339M4.97,11.449" transform="translate(-0.016 0.016)"/>
</svg>
