<svg xmlns="http://www.w3.org/2000/svg" width="20" height="20" viewBox="0 0 20 20">
  <metadata><?xpacket begin="﻿" id="W5M0MpCehiHzreSzNTczkc9d"?>
<x:xmpmeta xmlns:x="adobe:ns:meta/" x:xmptk="Adobe XMP Core 5.6-c142 79.160924, 2017/07/13-01:06:39        ">
   <rdf:RDF xmlns:rdf="http://www.w3.org/1999/02/22-rdf-syntax-ns#">
      <rdf:Description rdf:about=""/>
   </rdf:RDF>
</x:xmpmeta>
                                                                                                    
                                                                                                    
                                                                                                    
                                                                                                    
                                                                                                    
                                                                                                    
                                                                                                    
                                                                                                    
                                                                                                    
                                                                                                    
                                                                                                    
                                                                                                    
                                                                                                    
                                                                                                    
                                                                                                    
                                                                                                    
                                                                                                    
                                                                                                    
                                                                                                    
                                                                                                    
                           
<?xpacket end="w"?></metadata>
<defs>
    <style>
      .cls-1 {
        fill-rule: evenodd;
      }
    </style>
  </defs>
  <path class="cls-1" d="M16.979,7.668a0.424,0.424,0,0,0-.335-0.3l-4.68-.7L9.858,2.242A0.416,0.416,0,0,0,9.486,2h0a0.413,0.413,0,0,0-.372.245L7.035,6.691l-4.68.729a0.424,0.424,0,0,0-.336.3,0.445,0.445,0,0,0,.108.445l3.4,3.447L4.738,16.49a0.439,0.439,0,0,0,.166.426A0.4,0.4,0,0,0,5.148,17a0.38,0.38,0,0,0,.194-0.052L9.52,14.63l4.19,2.292a0.409,0.409,0,0,0,.191.049h0a0.428,0.428,0,0,0,.416-0.435,0.355,0.355,0,0,0-.012-0.1l-0.81-4.853,3.374-3.466A0.44,0.44,0,0,0,16.979,7.668Zm-4.218,3.453a0.444,0.444,0,0,0-.117.387l0.705,4.234L9.71,13.753a0.4,0.4,0,0,0-.388,0L5.7,15.765l0.68-4.24a0.448,0.448,0,0,0-.12-0.384L3.313,8.149l4.061-.632a0.415,0.415,0,0,0,.311-0.239l1.8-3.86,1.829,3.85a0.425,0.425,0,0,0,.314.239L15.7,8.113Z" transform="translate(0.5 0.5)"/>
</svg>
