<?xml version="1.0" encoding="utf-8"?>
<!-- Generator: Adobe Illustrator 22.1.0, SVG Export Plug-In . SVG Version: 6.00 Build 0)  -->
<svg version="1.1" xmlns="http://www.w3.org/2000/svg" xmlns:xlink="http://www.w3.org/1999/xlink" x="0px" y="0px"
	 viewBox="0 0 64 64" style="enable-background:new 0 0 64 64;" xml:space="preserve">
<style type="text/css">
	.st0{opacity:0.25;fill:none;stroke:#333333;stroke-width:2.5;stroke-miterlimit:10;}
	.st1{fill:#FFFFFF;stroke:#000000;stroke-width:0.3;stroke-miterlimit:10;}
	.st2{opacity:0.1;}
	.st3{opacity:0.4;fill:none;stroke:#000000;stroke-width:0.1;stroke-miterlimit:10;}
	.st4{opacity:0.1;fill:none;stroke:#000000;stroke-width:0.1;stroke-miterlimit:10;}
	.st5{fill:none;stroke:#000000;stroke-width:0.2;stroke-miterlimit:10;}
	.st6{opacity:0.3;}
	.st7{opacity:0.1;fill:none;stroke:#000000;stroke-width:0.2;stroke-miterlimit:10;}
	.st8{opacity:0.5;fill:none;stroke:#EB2027;stroke-width:0.2;stroke-miterlimit:10;}
	.st9{opacity:0.6;}
	.st10{fill:#00B08D;}
	.st11{fill:#333333;}
	.st12{fill:none;stroke:#333333;stroke-width:2;stroke-miterlimit:10;}
	.st13{fill:none;stroke:#333333;stroke-width:2.5;stroke-miterlimit:10;}
	.st14{clip-path:url(#SVGID_2_);}
	.st15{fill:#FFFFFF;}
	.st16{clip-path:url(#SVGID_4_);}
	.st17{fill:#F26223;}
	.st18{clip-path:url(#SVGID_6_);}
	.st19{clip-path:url(#SVGID_8_);}
	.st20{clip-path:url(#SVGID_10_);}
	.st21{clip-path:url(#SVGID_12_);}
	.st22{fill:none;stroke:#FFFFFF;stroke-width:2;stroke-miterlimit:10;}
	.st23{clip-path:url(#SVGID_14_);}
	.st24{clip-path:url(#SVGID_16_);}
	.st25{clip-path:url(#SVGID_18_);}
	.st26{clip-path:url(#SVGID_20_);}
	.st27{clip-path:url(#SVGID_22_);}
	.st28{clip-path:url(#SVGID_24_);}
	.st29{fill:none;stroke:#F26223;stroke-width:2.5;stroke-miterlimit:10;}
	.st30{clip-path:url(#SVGID_26_);}
	.st31{fill:none;stroke:#333333;stroke-width:3;stroke-miterlimit:10;}
	.st32{clip-path:url(#SVGID_28_);}
	.st33{clip-path:url(#SVGID_30_);}
	.st34{clip-path:url(#SVGID_32_);}
	.st35{clip-path:url(#SVGID_34_);}
	.st36{clip-path:url(#SVGID_36_);}
	.st37{clip-path:url(#SVGID_38_);}
	.st38{clip-path:url(#SVGID_40_);}
	.st39{clip-path:url(#SVGID_40_);fill:none;stroke:#333333;stroke-width:3;stroke-miterlimit:10;}
	.st40{clip-path:url(#SVGID_42_);}
	.st41{clip-path:url(#SVGID_44_);}
	.st42{clip-path:url(#SVGID_46_);}
	.st43{clip-path:url(#SVGID_48_);}
	.st44{clip-path:url(#SVGID_50_);}
	.st45{display:none;}
	.st46{display:inline;}
	.st47{clip-path:url(#SVGID_52_);}
	.st48{clip-path:url(#SVGID_54_);}
	.st49{clip-path:url(#SVGID_56_);}
	.st50{clip-path:url(#SVGID_58_);}
	.st51{clip-path:url(#SVGID_60_);}
	.st52{clip-path:url(#SVGID_62_);}
	.st53{clip-path:url(#SVGID_64_);}
	.st54{clip-path:url(#SVGID_66_);}
	.st55{clip-path:url(#SVGID_68_);}
	.st56{clip-path:url(#SVGID_68_);fill:#333333;}
	.st57{clip-path:url(#SVGID_70_);}
	.st58{clip-path:url(#SVGID_72_);}
	.st59{clip-path:url(#SVGID_74_);}
	.st60{clip-path:url(#SVGID_76_);}
	.st61{clip-path:url(#SVGID_78_);}
	.st62{clip-path:url(#SVGID_80_);}
	.st63{clip-path:url(#SVGID_82_);}
	.st64{clip-path:url(#SVGID_84_);}
	.st65{clip-path:url(#SVGID_86_);}
	.st66{clip-path:url(#SVGID_88_);}
	.st67{clip-path:url(#SVGID_90_);}
	.st68{clip-path:url(#SVGID_92_);}
	.st69{clip-path:url(#SVGID_94_);}
	.st70{clip-path:url(#SVGID_96_);}
	.st71{clip-path:url(#SVGID_98_);}
	.st72{clip-path:url(#SVGID_100_);}
	.st73{fill:#F0A95B;}
	.st74{fill:#80CDE8;}
	.st75{clip-path:url(#SVGID_102_);}
	.st76{clip-path:url(#SVGID_104_);}
	.st77{clip-path:url(#SVGID_106_);}
	.st78{clip-path:url(#SVGID_108_);}
	.st79{clip-path:url(#SVGID_110_);}
	.st80{clip-path:url(#SVGID_112_);}
	.st81{fill:#F0A95B;stroke:#333333;stroke-width:2.5;stroke-miterlimit:10;}
	.st82{fill:#80CDE8;stroke:#333333;stroke-width:2.5;stroke-miterlimit:10;}
	.st83{clip-path:url(#SVGID_114_);}
	.st84{clip-path:url(#SVGID_116_);}
	.st85{clip-path:url(#SVGID_118_);}
	.st86{clip-path:url(#SVGID_120_);}
	.st87{clip-path:url(#SVGID_122_);}
	.st88{clip-path:url(#SVGID_122_);fill:#333333;}
	.st89{clip-path:url(#SVGID_124_);}
	.st90{clip-path:url(#SVGID_126_);}
	.st91{clip-path:url(#SVGID_128_);}
	.st92{clip-path:url(#SVGID_130_);}
	.st93{clip-path:url(#SVGID_132_);}
	.st94{clip-path:url(#SVGID_134_);}
	.st95{clip-path:url(#SVGID_136_);}
	.st96{clip-path:url(#SVGID_140_);}
	.st97{clip-path:url(#SVGID_142_);}
	.st98{clip-path:url(#SVGID_144_);}
	.st99{clip-path:url(#SVGID_146_);}
	.st100{clip-path:url(#SVGID_148_);}
	.st101{clip-path:url(#SVGID_150_);}
	.st102{clip-path:url(#SVGID_152_);}
	.st103{clip-path:url(#SVGID_154_);}
	.st104{clip-path:url(#SVGID_156_);}
	.st105{clip-path:url(#SVGID_158_);}
	.st106{clip-path:url(#SVGID_160_);}
	.st107{clip-path:url(#SVGID_162_);}
	.st108{clip-path:url(#SVGID_164_);}
	.st109{clip-path:url(#SVGID_166_);}
	.st110{clip-path:url(#SVGID_166_);fill:#F26223;}
	.st111{clip-path:url(#SVGID_168_);}
	.st112{clip-path:url(#SVGID_170_);}
	.st113{clip-path:url(#SVGID_172_);}
	.st114{clip-path:url(#SVGID_174_);}
	.st115{clip-path:url(#SVGID_176_);}
	.st116{clip-path:url(#SVGID_178_);}
	.st117{clip-path:url(#SVGID_178_);fill:#F26223;}
	.st118{clip-path:url(#SVGID_180_);}
	.st119{clip-path:url(#SVGID_182_);}
	.st120{clip-path:url(#SVGID_184_);}
	.st121{clip-path:url(#SVGID_186_);}
	.st122{clip-path:url(#SVGID_188_);}
	.st123{clip-path:url(#SVGID_190_);}
	.st124{clip-path:url(#SVGID_192_);}
	.st125{clip-path:url(#SVGID_194_);}
	.st126{clip-path:url(#SVGID_196_);}
	.st127{clip-path:url(#SVGID_198_);}
	.st128{clip-path:url(#SVGID_200_);}
	.st129{clip-path:url(#SVGID_202_);}
	.st130{clip-path:url(#SVGID_204_);}
	.st131{clip-path:url(#SVGID_206_);}
	.st132{clip-path:url(#SVGID_208_);}
	.st133{clip-path:url(#SVGID_210_);}
	.st134{clip-path:url(#SVGID_212_);}
	.st135{clip-path:url(#SVGID_214_);}
	.st136{clip-path:url(#SVGID_216_);}
	.st137{clip-path:url(#SVGID_218_);}
	.st138{clip-path:url(#SVGID_220_);}
	.st139{clip-path:url(#SVGID_222_);}
	.st140{clip-path:url(#SVGID_224_);}
	.st141{clip-path:url(#SVGID_226_);}
	.st142{clip-path:url(#SVGID_228_);}
	.st143{clip-path:url(#SVGID_230_);}
	.st144{clip-path:url(#SVGID_232_);}
	.st145{clip-path:url(#SVGID_234_);}
	.st146{clip-path:url(#SVGID_236_);}
	.st147{fill:none;stroke:#FFFFFF;stroke-width:2.5;stroke-miterlimit:10;}
	.st148{clip-path:url(#SVGID_238_);}
	.st149{clip-path:url(#SVGID_240_);}
	.st150{clip-path:url(#SVGID_242_);}
	.st151{opacity:0.25;fill:#141414;}
	.st152{clip-path:url(#SVGID_244_);}
	.st153{clip-path:url(#SVGID_246_);}
	.st154{clip-path:url(#SVGID_248_);}
	.st155{clip-path:url(#SVGID_250_);}
	.st156{clip-path:url(#SVGID_252_);}
	.st157{clip-path:url(#SVGID_254_);}
	.st158{clip-path:url(#SVGID_254_);fill:#333333;}
	.st159{clip-path:url(#SVGID_256_);}
	.st160{clip-path:url(#SVGID_258_);}
	.st161{clip-path:url(#SVGID_260_);}
	.st162{clip-path:url(#SVGID_262_);}
	.st163{clip-path:url(#SVGID_264_);}
	.st164{clip-path:url(#SVGID_266_);}
	.st165{clip-path:url(#SVGID_268_);}
	.st166{clip-path:url(#SVGID_270_);}
	.st167{clip-path:url(#SVGID_272_);}
	.st168{clip-path:url(#SVGID_274_);}
	.st169{clip-path:url(#SVGID_276_);}
	.st170{clip-path:url(#SVGID_278_);}
	.st171{clip-path:url(#SVGID_280_);}
	.st172{clip-path:url(#SVGID_282_);}
	.st173{clip-path:url(#SVGID_284_);}
	.st174{clip-path:url(#SVGID_286_);}
	.st175{clip-path:url(#SVGID_288_);}
	.st176{clip-path:url(#SVGID_290_);}
	.st177{clip-path:url(#SVGID_292_);}
	.st178{clip-path:url(#SVGID_294_);}
	.st179{clip-path:url(#SVGID_296_);}
	.st180{clip-path:url(#SVGID_298_);}
	.st181{clip-path:url(#SVGID_300_);}
	.st182{clip-path:url(#SVGID_302_);}
	.st183{clip-path:url(#SVGID_302_);fill:none;stroke:#333333;stroke-width:2;stroke-miterlimit:10;}
	.st184{clip-path:url(#SVGID_302_);fill:#F26223;}
	.st185{clip-path:url(#SVGID_304_);}
	.st186{clip-path:url(#SVGID_306_);}
	.st187{clip-path:url(#SVGID_308_);}
	.st188{clip-path:url(#SVGID_310_);fill:none;stroke:#F26223;stroke-width:2.5;stroke-miterlimit:10;}
	.st189{clip-path:url(#SVGID_310_);fill:#333333;}
	.st190{clip-path:url(#SVGID_310_);}
	.st191{clip-path:url(#SVGID_310_);fill:none;stroke:#333333;stroke-width:2;stroke-miterlimit:10;}
	.st192{clip-path:url(#SVGID_312_);fill:none;stroke:#333333;stroke-width:2;stroke-miterlimit:10;}
	.st193{clip-path:url(#SVGID_312_);fill:none;stroke:#F26223;stroke-width:2.5;stroke-miterlimit:10;}
	.st194{clip-path:url(#SVGID_312_);}
	.st195{clip-path:url(#SVGID_314_);}
	.st196{clip-path:url(#SVGID_316_);}
	.st197{clip-path:url(#SVGID_318_);}
	.st198{clip-path:url(#SVGID_320_);}
	.st199{clip-path:url(#SVGID_322_);}
	.st200{clip-path:url(#SVGID_324_);}
	.st201{clip-path:url(#SVGID_326_);}
	.st202{clip-path:url(#SVGID_328_);}
	.st203{clip-path:url(#SVGID_328_);fill:none;stroke:#F26223;stroke-width:2;stroke-miterlimit:10;}
	.st204{clip-path:url(#SVGID_330_);}
	.st205{clip-path:url(#SVGID_332_);}
	.st206{clip-path:url(#SVGID_334_);}
	.st207{clip-path:url(#SVGID_336_);}
	.st208{clip-path:url(#SVGID_338_);}
	.st209{clip-path:url(#SVGID_340_);}
	.st210{clip-path:url(#SVGID_342_);}
	.st211{clip-path:url(#SVGID_344_);}
	.st212{fill:none;stroke:#333333;stroke-width:4;stroke-miterlimit:10;}
	.st213{clip-path:url(#SVGID_346_);}
	.st214{fill:none;stroke:#878787;stroke-width:4;stroke-linecap:round;stroke-linejoin:round;stroke-miterlimit:10;}
	.st215{fill:#878787;}
	.st216{clip-path:url(#SVGID_348_);}
	.st217{clip-path:url(#SVGID_350_);}
	.st218{fill:none;stroke:#878787;stroke-width:3;stroke-linecap:round;stroke-linejoin:round;stroke-miterlimit:10;}
	.st219{clip-path:url(#SVGID_352_);}
	.st220{clip-path:url(#SVGID_352_);fill:none;stroke:#333333;stroke-width:2;stroke-miterlimit:10;}
	.st221{clip-path:url(#SVGID_354_);}
	.st222{fill:#FFFFFF;stroke:#878787;stroke-width:4;stroke-linecap:round;stroke-linejoin:round;stroke-miterlimit:10;}
	.st223{clip-path:url(#SVGID_356_);}
	.st224{clip-path:url(#SVGID_358_);}
	.st225{fill:none;stroke:#878787;stroke-width:2;stroke-linecap:round;stroke-linejoin:round;stroke-miterlimit:10;}
	.st226{clip-path:url(#SVGID_360_);}
	.st227{fill:none;stroke:#F26223;stroke-width:2;stroke-miterlimit:10;}
	.st228{clip-path:url(#SVGID_362_);}
	.st229{clip-path:url(#SVGID_364_);}
	.st230{clip-path:url(#SVGID_366_);}
	.st231{clip-path:url(#SVGID_368_);}
	.st232{clip-path:url(#SVGID_370_);}
	.st233{clip-path:url(#SVGID_372_);}
	.st234{clip-path:url(#SVGID_374_);}
	.st235{clip-path:url(#SVGID_376_);}
	.st236{clip-path:url(#SVGID_378_);}
	.st237{clip-path:url(#SVGID_380_);}
	.st238{clip-path:url(#SVGID_382_);}
	.st239{clip-path:url(#SVGID_384_);}
	.st240{clip-path:url(#SVGID_386_);}
	.st241{clip-path:url(#SVGID_388_);}
	.st242{clip-path:url(#SVGID_390_);}
	.st243{fill:none;stroke:#FFFFFF;stroke-width:3;stroke-miterlimit:10;}
	.st244{clip-path:url(#SVGID_392_);}
	.st245{clip-path:url(#SVGID_394_);}
	.st246{clip-path:url(#SVGID_396_);}
	.st247{clip-path:url(#SVGID_398_);}
	.st248{clip-path:url(#SVGID_400_);}
	.st249{fill:none;stroke:#333333;stroke-width:1.3685;stroke-miterlimit:10;}
	.st250{fill:none;stroke:#333333;stroke-width:0.9812;stroke-miterlimit:10;}
	.st251{fill:none;stroke:#333333;stroke-miterlimit:10;}
	.st252{clip-path:url(#SVGID_402_);}
	.st253{clip-path:url(#SVGID_404_);}
	.st254{fill:none;stroke:#333333;stroke-width:1.5;stroke-miterlimit:10;}
	.st255{fill:none;stroke:#333333;stroke-width:1.2841;stroke-miterlimit:10;}
	.st256{clip-path:url(#SVGID_406_);}
	.st257{fill:none;stroke:#FFFFFF;stroke-width:3;stroke-linecap:round;stroke-linejoin:round;stroke-miterlimit:10;}
	.st258{clip-path:url(#SVGID_408_);}
	.st259{fill:none;stroke:#333333;stroke-width:3;stroke-linecap:round;stroke-linejoin:round;stroke-miterlimit:10;}
	.st260{clip-path:url(#SVGID_410_);}
	.st261{clip-path:url(#SVGID_412_);}
	.st262{clip-path:url(#SVGID_414_);}
	.st263{clip-path:url(#SVGID_416_);}
	.st264{clip-path:url(#SVGID_418_);}
	.st265{clip-path:url(#SVGID_420_);}
	.st266{clip-path:url(#SVGID_422_);}
	.st267{clip-path:url(#SVGID_424_);}
	.st268{fill:#F38D4F;}
	.st269{fill:#65BABF;}
	.st270{clip-path:url(#SVGID_426_);}
	.st271{clip-path:url(#SVGID_428_);}
	.st272{clip-path:url(#SVGID_430_);}
	.st273{clip-path:url(#SVGID_432_);}
	.st274{clip-path:url(#SVGID_434_);}
	.st275{clip-path:url(#SVGID_436_);}
	.st276{clip-path:url(#SVGID_438_);}
	.st277{clip-path:url(#SVGID_440_);}
	.st278{clip-path:url(#SVGID_442_);}
	.st279{clip-path:url(#SVGID_444_);}
	.st280{clip-path:url(#SVGID_446_);}
	.st281{clip-path:url(#SVGID_448_);}
	.st282{clip-path:url(#SVGID_450_);}
	.st283{clip-path:url(#SVGID_452_);}
	.st284{clip-path:url(#SVGID_454_);}
	.st285{clip-path:url(#SVGID_456_);}
	.st286{clip-path:url(#SVGID_458_);}
	.st287{clip-path:url(#SVGID_460_);}
	.st288{clip-path:url(#SVGID_462_);}
	.st289{fill:none;stroke:#FFFFFF;stroke-width:1.75;stroke-miterlimit:10;}
	.st290{clip-path:url(#SVGID_464_);}
	.st291{clip-path:url(#SVGID_466_);}
	.st292{fill:none;stroke:#333333;stroke-width:3.2;stroke-miterlimit:10;}
	.st293{clip-path:url(#SVGID_468_);}
	.st294{clip-path:url(#SVGID_470_);}
	.st295{clip-path:url(#SVGID_472_);}
	.st296{clip-path:url(#SVGID_474_);}
	.st297{clip-path:url(#SVGID_476_);}
	.st298{clip-path:url(#SVGID_478_);}
	.st299{clip-path:url(#SVGID_480_);}
	.st300{clip-path:url(#SVGID_482_);}
	.st301{clip-path:url(#SVGID_484_);}
	.st302{clip-path:url(#SVGID_486_);}
	.st303{clip-path:url(#SVGID_488_);}
	.st304{clip-path:url(#SVGID_490_);}
	.st305{clip-path:url(#SVGID_492_);}
	.st306{clip-path:url(#SVGID_494_);}
	.st307{clip-path:url(#SVGID_496_);}
	.st308{clip-path:url(#SVGID_498_);}
	.st309{clip-path:url(#SVGID_500_);}
	.st310{clip-path:url(#SVGID_502_);}
	.st311{clip-path:url(#SVGID_504_);}
	.st312{clip-path:url(#SVGID_506_);}
	.st313{clip-path:url(#SVGID_508_);}
	.st314{clip-path:url(#SVGID_510_);}
	.st315{fill:#FFFFFF;stroke:#333333;stroke-miterlimit:10;}
	.st316{clip-path:url(#SVGID_512_);}
	.st317{fill:#FFFFFF;stroke:#FFFFFF;stroke-miterlimit:10;}
	.st318{clip-path:url(#SVGID_514_);}
	.st319{clip-path:url(#SVGID_516_);}
	.st320{clip-path:url(#SVGID_518_);}
	.st321{clip-path:url(#SVGID_520_);}
	.st322{clip-path:url(#SVGID_522_);}
	.st323{clip-path:url(#SVGID_524_);}
	.st324{clip-path:url(#SVGID_526_);}
	.st325{clip-path:url(#SVGID_528_);}
	.st326{clip-path:url(#SVGID_530_);fill:none;stroke:#F26223;stroke-width:2;stroke-miterlimit:10;}
	.st327{clip-path:url(#SVGID_530_);}
	.st328{clip-path:url(#SVGID_532_);}
	.st329{clip-path:url(#SVGID_534_);}
	.st330{clip-path:url(#SVGID_536_);fill:none;stroke:#F26223;stroke-width:2;stroke-miterlimit:10;}
	.st331{clip-path:url(#SVGID_536_);}
	.st332{clip-path:url(#SVGID_538_);fill:none;stroke:#F26223;stroke-width:2;stroke-miterlimit:10;}
	.st333{clip-path:url(#SVGID_538_);}
	.st334{fill:none;stroke:#F26223;stroke-width:1.8;stroke-miterlimit:10;}
	.st335{clip-path:url(#SVGID_540_);fill:none;stroke:#F26223;stroke-width:2;stroke-miterlimit:10;}
	.st336{clip-path:url(#SVGID_540_);}
	.st337{clip-path:url(#SVGID_542_);}
	.st338{clip-path:url(#SVGID_544_);}
</style>
<g id="BG">
</g>
<g id="GROUND">
</g>
<g id="forground">
</g>
<g id="Line" class="st45">
</g>
<g id="Color_1" class="st45">
</g>
<g id="Color_2">
	<g>
		<defs>
			<rect id="SVGID_461_" width="64" height="64"/>
		</defs>
		<clipPath id="SVGID_2_">
			<use xlink:href="#SVGID_461_"  style="overflow:visible;"/>
		</clipPath>
		<g class="st14">
			<g>
				<g>
					<g>
						<g>
							<g>
								<g>
									<path class="st15" d="M26.7,40.4c3-2.4,7.5-2.1,11-3.3c-0.7,0.2-0.9-0.5-0.2,0.4c0.4,0.5,0.9,0.9,1.4,1.3
										c0.8,0.8,1.6,1.5,2.4,2.3c0.4,0.3,0.9,0.3,1.2,0c1.1-1,2.1-2,3.2-2.9c0.5-0.4,1-0.8,1.4-1.3c-0.8,0.9-1-0.1-0.4,0.3
										c0.3,0.2,0.8,0.2,1.1,0.2c4.1,0.9,10.2,1.5,11.2,6.4c0.4,2.2,0,5.4,0,7.9c0,2.6,0,5.3,0,7.9c0,1.1,1.8,1.1,1.8,0
										c0-3.3,0-6.6,0-9.9c0-2.9,0.3-5.6-0.8-8.2c-1.9-4.4-8-4.9-12.1-5.8c-1.4-0.3-1.7-0.2-2.7,0.7c-1.3,1.2-2.5,2.3-3.8,3.5
										c0.4,0,0.8,0,1.2,0c-1-1-2-2-3.1-2.9c-0.7-0.7-1.2-1.5-2.2-1.5c-1.5-0.1-3.5,0.9-5,1.2c-2.5,0.6-4.7,1-6.8,2.6
										C24.6,39.9,25.9,41.1,26.7,40.4L26.7,40.4z"/>
								</g>
							</g>
							<g>
								<g>
									<path class="st15" d="M42,33.5c1.1,0,1.1-1.8,0-1.8C40.9,31.7,40.9,33.5,42,33.5L42,33.5z"/>
								</g>
							</g>
							<g>
								<g>
									<path class="st15" d="M43.8,20.4c-2.7,2.1-6.3,2.3-9.4,1c-0.6-0.3-1.3,0.1-1.3,0.8c-0.2,5,2.7,10.8,8.2,11.3
										c5.5,0.5,8.9-4.7,9.5-9.5c0-0.4-0.3-0.8-0.7-0.8c-2.1-0.3-3.7-1.1-5.1-2.6c-0.8-0.8-2,0.4-1.2,1.2c1.6,1.8,3.6,2.7,5.9,3.1
										c-0.2-0.3-0.4-0.6-0.7-0.8c-0.5,4-3.5,8.6-8.1,7.7c-4.3-0.8-6.3-5.6-6.1-9.5c-0.4,0.3-0.9,0.5-1.3,0.8
										c3.9,1.7,8.2,1.4,11.5-1.2C46,20.9,44.7,19.7,43.8,20.4z"/>
								</g>
							</g>
							<g>
								<g>
									<path class="st15" d="M49.2,22.8c-0.1,4-2.5,8.9-7.2,8.9c-4.6,0-7.2-4.9-7.2-8.9c0-4,2.6-8.9,7.2-8.9
										C46.7,13.9,49,18.8,49.2,22.8c0,1.1,1.8,1.1,1.8,0c-0.2-5-3.3-10.7-8.9-10.7c-5.5,0-8.9,5.7-8.9,10.7
										c0,5,3.4,10.7,8.9,10.7c5.6,0,8.7-5.7,8.9-10.7C50.9,21.7,49.2,21.7,49.2,22.8z"/>
								</g>
							</g>
						</g>
						<g>
							<g>
								<path class="st15" d="M45.9,36.9c0.9,1.2,1.8,2.4,2.6,3.5c0.1-0.4,0.2-0.8,0.3-1.2c-1.3,0.7-3,1.2-4,2.3
									c-0.5,0.6-1.3,1.6-1.6,2.3c-0.4,0.9,0.3,0.1,0.1,0c-0.5-0.1-1.2,0-1.7,0c-0.5,0-0.9,0-1.4,0c0.9,0,0.6,0.6,0.1-0.3
									c-0.4-0.7-1-1.6-1.6-2.2c-1.1-1-2.8-1.5-4.1-2.1c0.1,0.4,0.2,0.8,0.3,1.2c0.9-1.2,1.8-2.4,2.7-3.6c0.7-0.9-0.9-1.8-1.5-0.9
									c-0.9,1.2-1.8,2.4-2.7,3.6c-0.3,0.4-0.1,1,0.3,1.2c0.8,0.4,1.7,0.8,2.5,1.1c0.2,0.1,1.3,0.6,1.1,0.4
									c-0.2-0.2,0.4,0.6,0.6,0.8c1.3,1.8,1.5,2.5,3.8,2.5c2.2,0,2.5-0.1,3.8-1.9c0.3-0.4,0.6-0.9,0.9-1.3c0.4-0.4-0.3,0.2,0,0
									c0.2-0.1,0.4-0.2,0.6-0.3c0.9-0.4,1.8-0.9,2.8-1.4c0.4-0.2,0.6-0.8,0.3-1.2c-0.9-1.2-1.8-2.4-2.6-3.5
									C46.7,35.1,45.2,36,45.9,36.9L45.9,36.9z"/>
							</g>
						</g>
						<path class="st289" d="M39.1,49.1l1-5.4c0-0.2,0.1-0.4,0.2-0.5l0.8-1.3l1-1.1l0.8,1.1l0.8,1.4c0.1,0.1,0.1,0.3,0.2,0.5
							l1.2,5.4l1.5,6.5c0.1,0.6,0,1.2-0.5,1.6l-2.4,2.4c-0.6,0.6-1.7,0.6-2.3,0l-2.5-2.5c-0.4-0.4-0.5-0.9-0.5-1.4L39.1,49.1z"/>
					</g>
					<g>
						<g>
							<path class="st15" d="M36.6,31.5c0,1.6,0,3.1,0,4.7c0,1.1,1.8,1.1,1.8,0c0-1.6,0-3.1,0-4.7C38.4,30.4,36.6,30.4,36.6,31.5
								L36.6,31.5z"/>
						</g>
					</g>
					<g>
						<g>
							<path class="st15" d="M45.5,31.3c0,1.7,0,3.3,0,5c0,1.1,1.8,1.1,1.8,0c0-1.7,0-3.3,0-5C47.3,30.1,45.5,30.1,45.5,31.3
								L45.5,31.3z"/>
						</g>
					</g>
				</g>
			</g>
			<g>
				<g>
					<g>
						<g>
							<g>
								<g>
									<path class="st15" d="M9.7,36.6c0-1.7,0-3.5,0-5.2c0-2.6-0.3-4.9,2.8-6c2.2-0.7,4.6-1.2,6.9-1.6c-0.9,0.2-0.8-0.4-0.2,0.4
										c0.3,0.3,0.7,0.6,1,0.9c0.7,0.6,1.3,1.3,2,1.9c0.4,0.3,0.9,0.3,1.2,0c0.6-0.6,1.2-1.1,1.9-1.7c0.4-0.4,0.9-0.7,1.3-1.2
										c0.2-0.2,1-0.6,0.2-0.4C26,23.9,27,23.9,27.3,24c0.7,0.2,1.4,0.3,2.1,0.5c1.5,0.3,3,0.7,4.4,1.2c1,0.4,1.5-1.3,0.4-1.7
										c-1.6-0.6-3.3-1-5-1.4c-0.8-0.2-2.1-0.8-2.9-0.5c-1.4,0.4-3,2.7-4.1,3.7c0.4,0,0.8,0,1.2,0c-1.1-1-2.7-3.4-4.2-3.7
										c-0.9-0.1-2.3,0.5-3.2,0.7c-1.7,0.4-3.6,0.6-5.1,1.4c-4.4,2.2-3,8.4-3,12.4C8,37.8,9.7,37.8,9.7,36.6L9.7,36.6z"/>
								</g>
							</g>
							<g>
								<g>
									<path class="st15" d="M22.9,20.9c1.1,0,1.1-1.8,0-1.8C21.8,19.1,21.8,20.9,22.9,20.9L22.9,20.9z"/>
								</g>
							</g>
							<g>
								<g>
									<path class="st15" d="M24.3,10c-2.2,1.7-5,1.8-7.4,0.7c-0.6-0.3-1.3,0.1-1.3,0.8c-0.2,4.1,2.1,8.7,6.5,9.3
										c4.6,0.6,7.6-3.6,8.1-7.7c0.1-0.4-0.1-1-0.6-1.1c-1.6-0.3-3-0.9-4.1-2.1c-0.8-0.8-2,0.4-1.2,1.2c1.3,1.5,2.9,2.2,4.9,2.6
										c-0.2-0.4-0.4-0.7-0.6-1.1C28.1,16,25.9,19.8,22,19c-3.4-0.7-4.8-4.5-4.7-7.5c-0.4,0.3-0.9,0.5-1.3,0.8
										c3.2,1.4,6.7,1.1,9.5-1C26.5,10.5,25.2,9.3,24.3,10z"/>
								</g>
							</g>
							<g>
								<g>
									<path class="st15" d="M28.6,12c-0.1,3.2-1.9,7.1-5.6,7.1c-3.6,0-5.6-3.9-5.6-7.1c0-3.2,2-7.1,5.6-7.1
										C26.6,5,28.5,8.9,28.6,12c0,1.1,1.8,1.1,1.8,0c-0.2-4.1-2.7-8.8-7.4-8.8c-4.6,0-7.4,4.7-7.4,8.8c0,4.2,2.8,8.8,7.4,8.8
										c4.7,0,7.2-4.7,7.4-8.8C30.4,10.9,28.6,10.9,28.6,12z"/>
								</g>
							</g>
						</g>
						<g>
							<g>
								<path class="st15" d="M25.9,23.6c0.8,1,1.5,2,2.3,3c0.1-0.5,0.1-0.9,0.2-1.4c-1.1,0.5-2.3,0.9-3.2,1.8
									c-0.4,0.4-1.2,1.4-1.4,2c-0.2,0.7,0.3,0.1,0.1-0.1c-0.2-0.1-1.1,0-1.3,0c-0.3,0-0.7,0-1.1,0c0.9-0.1,0.6,0.7,0.3-0.1
									c-0.2-0.6-1-1.5-1.4-1.9c-0.9-0.8-2.3-1.2-3.4-1.7c0.1,0.5,0.1,0.9,0.2,1.4c0.9-1.1,1.7-2.2,2.6-3.3
									c0.7-0.9-0.5-2.1-1.2-1.2c-0.9,1.1-1.7,2.2-2.6,3.3c-0.3,0.4-0.4,1.1,0.2,1.4c0.7,0.3,1.4,0.7,2.1,1
									c0.1,0.1,1.2,0.7,0.6,0.2c0.2,0.2,0.4,0.6,0.6,0.8c1.1,1.4,1.3,2,3.1,2c1.9,0,2.2-0.1,3.3-1.7c0.9-1.3,1.4-1.3,3.4-2.3
									c0.6-0.3,0.5-1,0.2-1.4c-0.8-1-1.5-2-2.3-3C26.5,21.5,25.2,22.8,25.9,23.6L25.9,23.6z"/>
							</g>
						</g>
						<g>
							<g>
								<path class="st15" d="M21.5,33.3c0.2-1.3,0.4-2.6,0.7-3.9c0.3-1,0.9-1.9,1.5-2.9c-0.5,0-1,0-1.5,0c1,1.8,1.5,2.8,1.9,4.8
									c0.4,2.1,0.9,4.2,1.3,6.3c0.2,1.1,1.9,0.7,1.7-0.4c-0.5-2.2-0.9-4.4-1.4-6.7c-0.4-1.9-1-3.1-2-4.8c-0.3-0.6-1.2-0.6-1.5,0
									c-0.6,1-1.3,1.9-1.6,3c-0.4,1.3-0.5,2.8-0.8,4.1C19.6,34,21.3,34.4,21.5,33.3L21.5,33.3z"/>
							</g>
						</g>
					</g>
					<g>
						<g>
							<path class="st15" d="M18.4,19.1c0,1.3,0,2.5,0,3.8c0,1.1,1.8,1.1,1.8,0c0-1.3,0-2.5,0-3.8C20.2,18,18.4,18,18.4,19.1
								L18.4,19.1z"/>
						</g>
					</g>
					<g>
						<g>
							<path class="st15" d="M25.6,18.9c0,1.3,0,2.7,0,4c0,1.1,1.8,1.1,1.8,0c0-1.3,0-2.7,0-4C27.4,17.8,25.6,17.8,25.6,18.9
								L25.6,18.9z"/>
						</g>
					</g>
				</g>
			</g>
			<g>
				<g>
					<path class="st15" d="M10.6,43.2c-2.2,0-4.3,0-6.5,0c0.2,0.5,0.4,1,0.6,1.5c4.4-3.8,8.8-7.6,13.2-11.4c-0.4,0-0.8,0-1.2,0
						c4.6,3.8,9.3,7.6,13.9,11.4c0.2-0.5,0.4-1,0.6-1.5c-2.7,0-5.4,0-8.2,0c-0.5,0-0.9,0.4-0.9,0.9c-0.3,6.4,3.9,12.6,8.4,16.7
						c0.2-0.5,0.4-1,0.6-1.5c-9.2,0.2-16.4-8-19.9-15.6c-0.5-1-2-0.2-1.5,0.9c3.8,8.1,11.7,16.7,21.5,16.5c0.7,0,1.2-1,0.6-1.5
						c-4.2-3.8-8.1-9.5-7.9-15.4c-0.3,0.3-0.6,0.6-0.9,0.9c2.7,0,5.4,0,8.2,0c0.7,0,1.2-1,0.6-1.5c-4.6-3.8-9.3-7.6-13.9-11.4
						c-0.4-0.3-0.8-0.3-1.2,0c-4.4,3.8-8.8,7.6-13.2,11.4C2.9,44,3.4,45,4.1,45c2.2,0,4.3,0,6.5,0C11.8,45,11.8,43.2,10.6,43.2z"/>
				</g>
			</g>
		</g>
	</g>
</g>
</svg>
