<svg xmlns="http://www.w3.org/2000/svg" xmlns:xlink="http://www.w3.org/1999/xlink" viewBox="0 0 80 80"><defs><style>.cls-1,.cls-3{fill:none;}.cls-2{clip-path:url(#clip-path);}.cls-3{stroke:#fff;stroke-miterlimit:10;stroke-width:2px;}.cls-4{fill:#fff;}</style><clipPath id="clip-path"><rect class="cls-1" width="80" height="80"/></clipPath></defs><title>icon</title><g id="forground"><g class="cls-2"><path class="cls-3" d="M23.72,75.8l11-3.67a18.6,18.6,0,0,1,11.8,0l11,3.68a.43.43,0,0,1-.14.83H23.86A.43.43,0,0,1,23.72,75.8Z"/><line class="cls-3" x1="40.58" y1="70.16" x2="40.58" y2="64.09"/><path class="cls-4" d="M65.05,53.87C54,65.57,35.13,66.22,23.65,54.74a29,29,0,0,1-1.34-39.15A29.07,29.07,0,0,1,43.93,5.75a1,1,0,0,0,0-2,31,31,0,0,0-30.62,28.6A30.69,30.69,0,0,0,66.47,55.29c.88-.93-.53-2.35-1.41-1.41Z"/><path class="cls-4" d="M32.58,6.89,30.29,2.65c-.61-1.14-2.35-.14-1.74,1l2.29,4.24c.61,1.14,2.35.14,1.74-1Z"/><path class="cls-4" d="M60.1,65.06l-2.29-4.24c-.61-1.14-2.35-.14-1.74,1L58.36,66c.61,1.14,2.35.14,1.74-1Z"/><path class="cls-4" d="M10,71h4.61a1,1,0,0,0,0-2H10a1,1,0,0,0,0,2Z"/><path class="cls-4" d="M64.86,11h4.61a1,1,0,0,0,0-2H64.86a1,1,0,0,0,0,2Z"/><circle class="cls-3" cx="44.29" cy="34.46" r="21.55" transform="translate(-10.48 22.23) rotate(-25.3)"/><path class="cls-3" d="M56.94,51.9A21.55,21.55,0,0,1,39.17,13.37"/><path class="cls-3" d="M31.41,17A21.55,21.55,0,0,1,49.18,55.57"/><path class="cls-3" d="M51.81,14.26A21.55,21.55,0,0,1,23,28.35"/><path class="cls-3" d="M64.76,41.18A21.55,21.55,0,0,0,35.92,54.94"/><line class="cls-3" x1="35.24" y1="15.3" x2="53.35" y2="53.61"/><line class="cls-3" x1="64.05" y1="25.11" x2="24.53" y2="43.8"/></g></g></svg>