<svg xmlns="http://www.w3.org/2000/svg" xmlns:xlink="http://www.w3.org/1999/xlink" viewBox="0 0 80 80"><defs><style>.cls-1{fill:none;}.cls-2{clip-path:url(#clip-path);}.cls-3{clip-path:url(#clip-path-2);}.cls-4{fill:#fff;}.cls-5{clip-path:url(#clip-path-3);}.cls-6{clip-path:url(#clip-path-4);}</style><clipPath id="clip-path"><rect class="cls-1" width="80" height="80"/></clipPath><clipPath id="clip-path-2"><rect class="cls-1" x="44.18" y="30.97" width="31.71" height="39.17" transform="translate(120.07 101.1) rotate(-180)"/></clipPath><clipPath id="clip-path-3"><rect class="cls-1" x="20.42" y="41.1" width="39.17" height="39.17"/></clipPath><clipPath id="clip-path-4"><rect class="cls-1" x="4.94" y="30.97" width="31.71" height="39.17"/></clipPath></defs><title>icon</title><g id="forground"><g class="cls-2"><g class="cls-3"><path class="cls-4" d="M58.67,57.8c-1.92.38-6,.49-6.95,2.31-1.36,2.62-1.55,6.36-4.42,8A1,1,0,0,0,47.8,70L71.72,70c1.47,0,3,.11,4.46,0,1.17-.08,1.55-.62,2.37-1.5C80,67,81.75,66,81.08,63.73c-.86-2.89-3.78-4-6.47-4.54-1.73-.34-3.46-.64-5.2-.91a2.3,2.3,0,0,0-1.86.14c-1.58,1-2.95,3.16-4.23,4.53h1.41l-5.11-4.88c-.93-.89-2.35.52-1.41,1.41l5.11,4.88a1,1,0,0,0,1.41,0l3.52-3.77c.06-.06.62-.57.6-.64,0,.09-1-.23-.45.18.71.53,2.67.44,3.54.6a33.35,33.35,0,0,1,3.87.78c1.18.36,3.82,1.91,3.61,3.19-.09.56-1.59,1.7-2,2.1s-.63.62-.9,1c-.5.65-.64.35.14.3C69.93,68.48,63,68,56.19,68l-8.4,0,.49,1.87c3.1-1.74,4.51-6.13,5.41-9.36l-.71.71c2-.59,4.11-1,6.19-1.45C60.45,59.48,59.93,57.55,58.67,57.8Z"/><path class="cls-4" d="M60.33,43.08A12.1,12.1,0,0,0,73.1,44.46l-1.49-.87c.18,4.36-2,9.67-6.78,10.48-5.07.86-8.37-4.08-8.89-8.52l-.75,1a10.77,10.77,0,0,0,6.55-3.43c.85-1-.56-2.38-1.41-1.41a9.1,9.1,0,0,1-5.65,2.91,1,1,0,0,0-.75,1c.65,5.49,4.54,11.22,10.73,10.57,6-.64,9.17-7,8.94-12.52a1,1,0,0,0-1.49-.87,10,10,0,0,1-10.37-1.05C60.75,40.87,59.33,42.27,60.33,43.08Z"/><path class="cls-4" d="M53.88,44.34c.15,5.55,3.63,11.83,9.88,11.83s9.88-6.27,9.88-11.83S69.9,32.52,63.76,32.52,54,38.79,53.88,44.34a1,1,0,0,0,2,0c.12-4.41,2.76-9.87,7.88-9.83s7.88,5.34,7.88,9.83-2.7,9.61-7.57,9.81c-5.27.22-8.06-5.25-8.18-9.81A1,1,0,0,0,53.88,44.34Z"/><path class="cls-4" d="M67.28,54.29v3.12a8.18,8.18,0,0,0,0,1c.09.73-.27.54.23.06-.21.2-.4.43-.6.64l-3.58,3.83h1.41c-1.22-1.29-2.42-3.06-3.87-4.09-.29-.21-.27-.64-.14.08a1.83,1.83,0,0,1,0-.48,10.24,10.24,0,0,0,0-1.26v-2.9a1,1,0,0,0-2,0c0,1.54-.52,4.38.44,5.66a52.47,52.47,0,0,0,4.16,4.4,1,1,0,0,0,1.41,0c1.33-1.42,2.77-2.8,4-4.3,1.06-1.29.53-4.16.53-5.76a1,1,0,0,0-2,0Z"/></g><g class="cls-5"><path class="cls-4" d="M35.44,68.78c-4,1.14-10.09,1.38-10.53,6.59a1,1,0,0,0,1,1H54.09a1,1,0,0,0,1-1c-.42-4.82-6-5.52-9.85-6.2-2.22-.39-4,2-5.59,3.31l1.2-.16-4.65-3.44c-1-.76-2,1-1,1.74l4.65,3.44a1,1,0,0,0,1.2-.16,34.52,34.52,0,0,1,3.56-3q.47-.35-.48.08l1.45.27c.84.16,1.69.33,2.52.52,2,.46,4.76,1.09,5,3.58l1-1H25.92l1,1c.3-3.54,6.34-3.89,9-4.66A1,1,0,0,0,35.44,68.78Z"/><path class="cls-4" d="M48.53,55.4c-4.09.45-5.66-2.34-7.82-5.16a1,1,0,0,0-1.58.21c-.92,2.11-4.69,5.93-7.4,5-1.22-.42-1.72,1.51-.51,1.93,3.57,1.24,8.36-3,9.65-5.93l-1.58.21c2.51,3.27,4.6,6.26,9.23,5.75,1.27-.14,1.28-2.14,0-2Z"/><path class="cls-4" d="M47.53,56.4c-.12,4.25-2.64,9.4-7.53,9.4s-7.4-5.15-7.53-9.4a1,1,0,0,0-2,0C30.63,61.76,34,67.8,40,67.8s9.37-6,9.53-11.4a1,1,0,0,0-2,0Z"/><path class="cls-4" d="M34.7,69c-5.24-4.1-6.39-11.35-4.46-17.47A10.08,10.08,0,0,1,35,45.3c1.28-.63,5.62-1.65,6.48.07a1,1,0,0,0,1.12.47c5.95-1.77,7.64,4.95,7.94,9.37.35,5.26-.94,10.4-5.23,13.77-1,.79.41,2.2,1.41,1.41,5.43-4.27,6.53-11.27,5.54-17.76-.79-5.21-4.1-10.54-10.17-8.73l1.12.47c-1-2.1-4.68-2-6.55-1.7a10.38,10.38,0,0,0-7.31,5.73c-3.61,7-2.49,17,3.93,22,1,.78,2.43-.62,1.41-1.41Z"/><path class="cls-4" d="M35.86,71.31,39.75,74a1,1,0,0,0,1.2-.16,22,22,0,0,0,3.39-2.73,3,3,0,0,0,.3-2V66.8a1,1,0,0,0-1-1H36.35a1,1,0,0,0-1,1v3.64a1,1,0,0,0,2,0V66.8l-1,1h7.29l-1-1v3.63l.29-.71-3.4,2.74,1.2-.16-3.89-2.73C35.8,68.83,34.81,70.57,35.86,71.31Z"/></g><path class="cls-4" d="M32.14,27.19H27.29l1,1v-23l-1,1H54.35l-1-1v23l1-1H40a1,1,0,0,0-1,1L40,39.62l1.71-.71L32.84,27.48c-.79-1-2.2.41-1.41,1.41l8.91,11.43A1,1,0,0,0,42,39.62L41,28.19l-1,1H54.35a1,1,0,0,0,1-1v-23a1,1,0,0,0-1-1H27.29a1,1,0,0,0-1,1v23a1,1,0,0,0,1,1h4.85A1,1,0,0,0,32.14,27.19Z"/><path class="cls-4" d="M32.58,17.77l2.61,4a1,1,0,0,0,1.36.38l12.13-8.4c1.05-.73.07-2.47-1-1.74L35.56,20.4l1.36.38-2.61-4c-.7-1.07-2.44-.09-1.74,1Z"/><g class="cls-6"><path class="cls-4" d="M21.65,59.73c2.08.42,4.16.86,6.19,1.45l-.75-1c.19,3.79,2.54,7.24,5.3,9.65l.71-1.71L13,68.09l-5.5,0a12,12,0,0,0-3.15,0c-.38.12.44.61.15-.06S3,66.38,2.38,65.74c-.87-.93-1.21-.88-.49-1.92,1.23-1.77,2.79-2.3,4.84-2.7,1.5-.29,3-.55,4.5-.8.19,0,1.33-.09,1.43-.23-.2.3-.82-.75-.53,0s1.73,1.86,2.34,2.5l1.62,1.74a1,1,0,0,0,1.41,0l5.11-4.88c.93-.89-.48-2.3-1.41-1.41l-5.11,4.88H17.5a48.75,48.75,0,0,0-4-4.24c-1.3-1.09-3.27-.24-4.84,0-2.82.49-6.07.82-8,3.21A4.64,4.64,0,0,0-.44,65.36c.17.71.93,1.27,1.41,1.79.91,1,1.91,2.61,3.26,2.9a17.71,17.71,0,0,0,3.44,0l14.66.06,10.78,0a1,1,0,0,0,.71-1.71c-2.34-2-4.56-5-4.72-8.24a1,1,0,0,0-.75-1c-2-.59-4.11-1-6.19-1.45C20.9,57.55,20.39,59.48,21.65,59.73Z"/><path class="cls-4" d="M19.08,41.66A10,10,0,0,1,8.72,42.72a1,1,0,0,0-1.49.87c-.23,5.49,2.9,11.88,8.94,12.52S26.24,51,26.89,45.54a1,1,0,0,0-.75-1,9.1,9.1,0,0,1-5.65-2.91c-.85-1-2.27.45-1.41,1.41a10.77,10.77,0,0,0,6.55,3.43l-.75-1C24.36,50,21.07,54.92,16,54.06c-4.81-.81-7-6.12-6.78-10.48l-1.49.87A12.1,12.1,0,0,0,20.5,43.08C21.5,42.28,20.08,40.87,19.08,41.66Z"/><path class="cls-4" d="M24.95,44.34c-.12,4.41-2.76,9.87-7.88,9.83s-7.88-5.34-7.88-9.83,2.7-9.61,7.57-9.81c5.27-.22,8.06,5.25,8.18,9.81a1,1,0,0,0,2,0c-.15-5.55-3.63-11.83-9.88-11.83S7.19,38.78,7.19,44.34s3.74,11.83,9.88,11.83,9.72-6.27,9.88-11.83A1,1,0,0,0,24.95,44.34Z"/><path class="cls-4" d="M11.55,54.29c0,1.61-.53,4.46.53,5.76,1.22,1.51,2.69,2.88,4,4.3a1,1,0,0,0,1.41,0A52.76,52.76,0,0,0,21.66,60c1-1.28.44-4.12.44-5.66a1,1,0,0,0-2,0v2.87a11.23,11.23,0,0,0,0,1.13,3.36,3.36,0,0,1,0,.64c.11-.65.18-.32-.14-.08a34.48,34.48,0,0,0-3.87,4.09H17.5L13.92,59.1c-.2-.21-.39-.44-.6-.64.33.32.11.78.23.11a6.64,6.64,0,0,0,0-1V54.29a1,1,0,0,0-2,0Z"/></g></g></g></svg>