<svg xmlns="http://www.w3.org/2000/svg" width="20" height="20" viewBox="0 0 20 20">
  <metadata><?xpacket begin="﻿" id="W5M0MpCehiHzreSzNTczkc9d"?>
<x:xmpmeta xmlns:x="adobe:ns:meta/" x:xmptk="Adobe XMP Core 5.6-c142 79.160924, 2017/07/13-01:06:39        ">
   <rdf:RDF xmlns:rdf="http://www.w3.org/1999/02/22-rdf-syntax-ns#">
      <rdf:Description rdf:about=""/>
   </rdf:RDF>
</x:xmpmeta>
                                                                                                    
                                                                                                    
                                                                                                    
                                                                                                    
                                                                                                    
                                                                                                    
                                                                                                    
                                                                                                    
                                                                                                    
                                                                                                    
                                                                                                    
                                                                                                    
                                                                                                    
                                                                                                    
                                                                                                    
                                                                                                    
                                                                                                    
                                                                                                    
                                                                                                    
                                                                                                    
                           
<?xpacket end="w"?></metadata>
<defs>
    <style>
      .cls-1 {
        fill: #333;
        fill-rule: evenodd;
      }
    </style>
  </defs>
  <path id="Forma_1" data-name="Forma 1" class="cls-1" d="M17.75,16.484l-3.943-4.208a6.949,6.949,0,0,0,1.569-4.412A6.786,6.786,0,0,0,8.687,1,6.786,6.786,0,0,0,2,7.864a6.786,6.786,0,0,0,6.689,6.864,6.5,6.5,0,0,0,3.832-1.242l3.973,4.24a0.857,0.857,0,0,0,1.233.025A0.913,0.913,0,0,0,17.75,16.484ZM8.687,2.791a5.015,5.015,0,0,1,4.944,5.073,5.015,5.015,0,0,1-4.944,5.073A5.015,5.015,0,0,1,3.743,7.864,5.015,5.015,0,0,1,8.687,2.791Z" transform="translate(0 0.5)"/>
</svg>
