<svg xmlns="http://www.w3.org/2000/svg" width="20" height="20" viewBox="0 0 20 20">
  <metadata><?xpacket begin="﻿" id="W5M0MpCehiHzreSzNTczkc9d"?>
<x:xmpmeta xmlns:x="adobe:ns:meta/" x:xmptk="Adobe XMP Core 5.6-c142 79.160924, 2017/07/13-01:06:39        ">
   <rdf:RDF xmlns:rdf="http://www.w3.org/1999/02/22-rdf-syntax-ns#">
      <rdf:Description rdf:about=""/>
   </rdf:RDF>
</x:xmpmeta>
                                                                                                    
                                                                                                    
                                                                                                    
                                                                                                    
                                                                                                    
                                                                                                    
                                                                                                    
                                                                                                    
                                                                                                    
                                                                                                    
                                                                                                    
                                                                                                    
                                                                                                    
                                                                                                    
                                                                                                    
                                                                                                    
                                                                                                    
                                                                                                    
                                                                                                    
                                                                                                    
                           
<?xpacket end="w"?></metadata>
<defs>
    <style>
      .cls-1 {
        fill: #333;
        fill-rule: evenodd;
      }
    </style>
  </defs>
  <path class="cls-1" d="M14.342,11.637a2.649,2.649,0,0,0-2.1,1.047l-4.08-2.3A2.714,2.714,0,0,0,8.307,9.5a2.655,2.655,0,0,0-.151-0.888l4.077-2.3a2.642,2.642,0,0,0,2.106,1.053,2.682,2.682,0,1,0-2.655-2.682,2.643,2.643,0,0,0,.151.888l-4.073,2.3A2.633,2.633,0,0,0,5.655,6.815a2.682,2.682,0,1,0,2.112,4.308l4.077,2.3A2.65,2.65,0,1,0,14.342,11.637Zm0-8.793a1.841,1.841,0,1,1-1.822,1.841A1.833,1.833,0,0,1,14.342,2.844ZM5.658,11.338A1.841,1.841,0,1,1,7.481,9.5,1.833,1.833,0,0,1,5.658,11.338Zm8.684,4.818a1.841,1.841,0,1,1,1.823-1.841A1.833,1.833,0,0,1,14.342,16.156Z" transform="translate(0 0.5)"/>
</svg>
