<svg xmlns="http://www.w3.org/2000/svg" xmlns:xlink="http://www.w3.org/1999/xlink" viewBox="0 0 80 80"><defs><style>.cls-1,.cls-4{fill:none;}.cls-2{clip-path:url(#clip-path);}.cls-3{fill:#fff;}.cls-4{stroke:#fff;stroke-miterlimit:10;stroke-width:2px;}</style><clipPath id="clip-path"><rect class="cls-1" width="80" height="80"/></clipPath></defs><title>icon</title><g id="forground"><g class="cls-2"><path class="cls-3" d="M22.45,28.44,14,23.2v2.17L22.45,21c1.43-.74.19-2.91-1.23-2.17L12.81,23.2a1.26,1.26,0,0,0,0,2.17l8.41,5.24c1.36.85,2.6-1.32,1.23-2.17Z"/><path class="cls-3" d="M21.83,30.53a1,1,0,0,0,0-2,1,1,0,0,0,0,2Z"/><path class="cls-3" d="M14.43,48.48v-24l-1.49.87,8.41,5.08-.51-.87V52.2a1,1,0,0,0,2,0v-19c0-1.65.54-3.72-.91-4.75-2.52-1.79-5.36-3.24-8-4.83a1,1,0,0,0-1.49.87v24a1,1,0,0,0,2,0Z"/><path class="cls-3" d="M4.48,44.57,33.94,61.32l4.19,2.38A50,50,0,0,0,44,67.11c1.35.53,2.25-.36,3.45-1.05l8.17-4.67,15.45-8.84a1,1,0,0,0-1-1.74L57.24,58.18l-8.7,5c-.62.36-4,1.69-4.18,2.39.73-2.76,1.19.92.67-.17,0-.1-.4-.21-.5-.29a21,21,0,0,0-2.27-1.31L39.19,62l-3.26-1.86L18.68,50.34,5.46,42.83a1,1,0,0,0-1,1.74Z"/><path class="cls-3" d="M36.35,20.4l-14-8.74V13.4l7-3.64L34,7.34a13.57,13.57,0,0,0,1.65-.86c.4-.29,1-.27.21-.36-1.08-.12,1.33.94,1.7,1.13l4.82,2.5,7,3.64V11.66l-14,8.74c-1.09.68-.11,2.42,1,1.74l14-8.74a1,1,0,0,0,0-1.74L42.92,7.79,38.07,5.27a6.09,6.09,0,0,0-2.22-1,5.61,5.61,0,0,0-2.07.95l-5,2.6-7.45,3.87a1,1,0,0,0,0,1.74l14,8.74C36.45,22.82,37.44,21.08,36.35,20.4Z"/><path class="cls-3" d="M50.87,18.81V12.53a1,1,0,0,0-1.49-.87l-7.22,4.5-4.76,3a9.76,9.76,0,0,0-2.14,1.35c-1.05,1.21-.4,4.39-.4,5.86V46.27a1,1,0,0,0,2,0v-25l-.51.87,14-8.74-1.49-.87v6.28a1,1,0,0,0,2,0Z"/><path class="cls-3" d="M22.83,52.86V12.8l-1.49.87,14,8.47c1.1.67,2.09-1.07,1-1.74l-14-8.47a1,1,0,0,0-1.49.87V52.86a1,1,0,0,0,2,0Z"/><path class="cls-3" d="M52.83,39.05l0,20.43a1,1,0,0,0,2,0l0-20.43a1,1,0,0,0-2,0Z"/><path class="cls-3" d="M54.31,29.41,43.24,23.78v1.74l5.32-3.14c.56-.33,5.76-2.84,5.73-3.38,0,.56-1.37-.56-.53.2a5.29,5.29,0,0,0,1.14.57l3.75,1.87,5.75,2.87V22.78L53.32,29.41c-1.1.66-.12,2.4,1,1.74l11.07-6.64a1,1,0,0,0,0-1.74l-6-3-3.83-1.92a4.31,4.31,0,0,0-1.89-.75c-.57,0-1.26.64-1.72.91l-3.76,2.22-6,3.52a1,1,0,0,0,0,1.74l11.07,5.64C54.47,31.73,55.46,30,54.31,29.41Z"/><path class="cls-3" d="M65.89,54.46V23.64a1,1,0,0,0-1.49-.87l-8,4.92c-1.53.94-3.49,1.5-3.57,3.43-.27,7,0,14.13,0,21.18v7.45a1,1,0,0,0,2,0V30.44l-.51.87,11.06-6.8-1.49-.87V54.46a1,1,0,0,0,2,0Z"/><path class="cls-3" d="M43.86,40.79l-.11-16.14-1.49.87,11.07,5.64-.51-.87c.26,9.72,0,19.48,0,29.2a1,1,0,0,0,2,0c0-9.73.26-19.48,0-29.2a1,1,0,0,0-.51-.87L43.24,23.78a1,1,0,0,0-1.49.87l.11,16.14a1,1,0,0,0,2,0Z"/><path class="cls-3" d="M45.35,49.28l-9-4.58v1.74l4.5-2.66c.37-.22,4.52-2.37,4.47-2.64q-1.4-.21-.85,0l.3.15a4.44,4.44,0,0,0,1.08.54l2.79,1.4,4.72,2.36V43.88l-9,5.4c-1.1.66-.12,2.4,1,1.74l9-5.4a1,1,0,0,0,0-1.74l-4.94-2.47c-1.15-.58-3.3-2.25-4.69-2.15s-3.31,1.85-4.45,2.52l-4.92,2.9a1,1,0,0,0,0,1.74l9,4.58C45.5,51.6,46.5,49.86,45.35,49.28Z"/><path class="cls-3" d="M54.85,61V44.75a1,1,0,0,0-1.49-.87l-6.15,3.78C46,48.4,44.07,49,43.86,50.55c-.34,2.43,0,5.15,0,7.61v6.39a1,1,0,0,0,2,0V50.27l-.51.87,9-5.53-1.49-.87V61a1,1,0,0,0,2,0Z"/><path class="cls-3" d="M36.94,61.11l-.09-15.55-1.49.87,9,4.58-.51-.87c.13,4.92,0,9.86,0,14.79a1,1,0,0,0,2,0c0-4.93.14-9.86,0-14.79a1,1,0,0,0-.51-.87l-9-4.58a1,1,0,0,0-1.49.87l.09,15.55a1,1,0,0,0,2,0Z"/><path class="cls-3" d="M4.48,62.95l22.6,13.32a1,1,0,0,0,1-1.74L5.46,61.21a1,1,0,0,0-1,1.74Z"/><path class="cls-3" d="M7.8,58.57l-.16,4.22c0,1.29,2,1.29,2,0l.16-4.22c0-1.29-2-1.29-2,0Z"/><path class="cls-3" d="M75,65.46,55.41,74.8c-1.16.56-.17,2.29,1,1.74L76,67.2c1.16-.56.17-2.29-1-1.74Z"/><path class="cls-4" d="M11.47,53.23a3.23,3.23,0,0,0-.46,0,2.22,2.22,0,1,0-4.11,1.4,2,2,0,1,0,1.76,3.46,3.26,3.26,0,1,0,2.81-4.9Z"/><path class="cls-3" d="M65.65,65.78,65.49,70c0,1.29,2,1.29,2,0l.16-4.22c0-1.29-2-1.29-2,0Z"/><path class="cls-4" d="M68.77,60.21a3.23,3.23,0,0,0-.46,0,2.22,2.22,0,1,0-4.11,1.4A2,2,0,1,0,66,65.11a3.26,3.26,0,1,0,2.81-4.9Z"/></g></g></svg>