<svg xmlns="http://www.w3.org/2000/svg" width="22" height="22" viewBox="0 0 22 22">
  <metadata><?xpacket begin="﻿" id="W5M0MpCehiHzreSzNTczkc9d"?>
<x:xmpmeta xmlns:x="adobe:ns:meta/" x:xmptk="Adobe XMP Core 5.6-c142 79.160924, 2017/07/13-01:06:39        ">
   <rdf:RDF xmlns:rdf="http://www.w3.org/1999/02/22-rdf-syntax-ns#">
      <rdf:Description rdf:about=""/>
   </rdf:RDF>
</x:xmpmeta>
                                                                                                    
                                                                                                    
                                                                                                    
                                                                                                    
                                                                                                    
                                                                                                    
                                                                                                    
                                                                                                    
                                                                                                    
                                                                                                    
                                                                                                    
                                                                                                    
                                                                                                    
                                                                                                    
                                                                                                    
                                                                                                    
                                                                                                    
                                                                                                    
                                                                                                    
                                                                                                    
                           
<?xpacket end="w"?></metadata>
<defs>
    <style>
      .cls-1 {
        fill: #333;
        fill-rule: evenodd;
      }
    </style>
  </defs>
  <path id="Forma_1" data-name="Forma 1" class="cls-1" d="M18.976,8.158A11.558,11.558,0,0,0,10.963,5,11.555,11.555,0,0,0,2.95,8.158L0,10.965l3.024,2.877A11.558,11.558,0,0,0,11.036,17a11.557,11.557,0,0,0,8.013-3.157L22,11.035Zm-0.452,5.184a10.8,10.8,0,0,1-7.487,2.95,10.8,10.8,0,0,1-7.487-2.95l-2.5-2.377L3.476,8.657a10.8,10.8,0,0,1,7.488-2.95,10.8,10.8,0,0,1,7.487,2.95l2.5,2.377ZM10.989,6.393a4.724,4.724,0,0,0-4.832,4.6,4.724,4.724,0,0,0,4.832,4.6,4.724,4.724,0,0,0,4.832-4.6A4.723,4.723,0,0,0,10.989,6.393Zm0,2.828a1.817,1.817,0,0,0-1.858,1.768,0.372,0.372,0,0,1-.743,0,2.543,2.543,0,0,1,2.6-2.475A0.354,0.354,0,1,1,10.989,9.222Z"/>
</svg>
