<svg xmlns="http://www.w3.org/2000/svg" xmlns:xlink="http://www.w3.org/1999/xlink" viewBox="0 0 64 64"><defs><style>.cls-1{fill:none;}.cls-2{clip-path:url(#clip-path);}.cls-3{fill:#fff;}</style><clipPath id="clip-path"><rect class="cls-1" width="64" height="64"/></clipPath></defs><title>wishlist</title><g id="Color_2" data-name="Color 2"><g class="cls-2"><path class="cls-3" d="M56.93,32V59.42l1-1H18.07l1,1V22.57c0-4.05.15-9.81-5.52-9.81a1,1,0,0,0,0,2c4.32,0,3.52,5.31,3.52,8.17V59.42a1,1,0,0,0,1,1H57.93a1,1,0,0,0,1-1V32a1,1,0,0,0-2,0Z"/><path class="cls-3" d="M18.07,46h-12l1,1V13.68c0-.82,0-1.65,0-2.46A5.71,5.71,0,0,1,12.7,5.58c7.13-.32,14.33,0,21.46,0h13c2.8,0,6.37-.56,8.44,1.76C57.1,9,56.93,11,56.93,13.08V32a1,1,0,0,0,2,0V21.16c0-3.63.34-7.42,0-11-.47-4.53-4.31-6.55-8.42-6.55H39c-8.6,0-17.22-.11-25.83,0-4.48,0-7.91,3.05-8.09,7.64-.12,2.92,0,5.86,0,8.78V47a1,1,0,0,0,1,1h12a1,1,0,0,0,0-2Z"/><path class="cls-3" d="M35.26,39.22H48.55a1,1,0,0,0,0-2H35.26a1,1,0,0,0,0,2Z"/><path class="cls-3" d="M35.26,49.86H48.55a1,1,0,0,0,0-2H35.26a1,1,0,0,0,0,2Z"/><circle class="cls-3" cx="26.75" cy="38.22" r="2.33"/><circle class="cls-3" cx="26.75" cy="48.86" r="2.33"/><path class="cls-3" d="M39.17,16.05c1.93-3.87,6.95-2.79,7.44,1.44.28,2.37-1.15,4.39-2.8,5.91-2.05,1.87-4.15,3.69-6.22,5.54H39c-2-1.85-4.1-3.67-6.11-5.54-1.59-1.48-3-3.4-2.83-5.7.3-4.31,5.42-5.61,7.36-1.65.57,1.16,2.3.16,1.74-1-1.38-2.81-4.57-4.43-7.57-3a6.81,6.81,0,0,0-3.33,7.67c1.09,4.49,6.08,7.69,9.32,10.63a1,1,0,0,0,1.42,0c3.28-2.94,8.34-6.1,9.43-10.63a6.84,6.84,0,0,0-3-7.52c-3-1.67-6.51-.06-8,2.85C36.86,16.21,38.59,17.2,39.17,16.05Z"/><path class="cls-3" d="M38.3,16.55a1,1,0,0,0,0-2,1,1,0,0,0,0,2Z"/></g></g></svg>