<svg id="Actions" xmlns="http://www.w3.org/2000/svg" width="48" height="48" viewBox="0 0 48 48">
  <metadata><?xpacket begin="﻿" id="W5M0MpCehiHzreSzNTczkc9d"?>
<x:xmpmeta xmlns:x="adobe:ns:meta/" x:xmptk="Adobe XMP Core 5.6-c138 79.159824, 2016/09/14-01:09:01        ">
   <rdf:RDF xmlns:rdf="http://www.w3.org/1999/02/22-rdf-syntax-ns#">
      <rdf:Description rdf:about=""/>
   </rdf:RDF>
</x:xmpmeta>
                                                                                                    
                                                                                                    
                                                                                                    
                                                                                                    
                                                                                                    
                                                                                                    
                                                                                                    
                                                                                                    
                                                                                                    
                                                                                                    
                                                                                                    
                                                                                                    
                                                                                                    
                                                                                                    
                                                                                                    
                                                                                                    
                                                                                                    
                                                                                                    
                                                                                                    
                                                                                                    
                           
<?xpacket end="w"?></metadata>
<defs>
    <style>
      .cls-1 {
        fill: #eaeef1;
      }

      .cls-2, .cls-3, .cls-4 {
        fill: #f26225;
      }

      .cls-2 {
        fill-opacity: 0;
      }

      .cls-2, .cls-7, .cls-8 {
        stroke: #f26225;
        stroke-width: 1px;
      }

      .cls-3, .cls-5 {
        fill-rule: evenodd;
      }

      .cls-5, .cls-6, .cls-7, .cls-9 {
        fill: #fff;
      }

      .cls-7, .cls-8 {
        stroke-linejoin: round;
      }

      .cls-10, .cls-8 {
        fill: #fc6b02;
      }

      .cls-10, .cls-9 {
        font-size: 14px;
        font-family: Open Sans;
      }
    </style>
  </defs>
  <rect class="cls-1" x="-863" y="-1077.5" width="311" height="1187.5"/>
  <g>
    <circle id="Ellipse_1_copy_3" data-name="Ellipse 1 copy 3" class="cls-2" cx="-280" cy="25" r="20"/>
    <path id="next_copy" data-name="next copy" class="cls-3" d="M-274.068,19.423l-6.19,6.143,6.241,6.107-2.823,2.8-9.14-9.07,8.927-8.857Z"/>
  </g>
  <g>
    <path id="next" class="cls-3" d="M244.068,19.423l6.19,6.143-6.241,6.107,2.823,2.8,9.14-9.07-8.927-8.857Z"/>
    <circle id="Ellipse_1_copy" data-name="Ellipse 1 copy" class="cls-2" cx="250" cy="25" r="20"/>
  </g>
  <g id="custom_report_copy_2" data-name="custom_report copy 2">
    <circle class="cls-4" cx="-53" cy="24" r="20"/>
    <path id="Forma_1" data-name="Forma 1" class="cls-5" d="M-45.171,31.086l-4.773-4.79a6.251,6.251,0,0,0,1.47-4.01A6.33,6.33,0,0,0-54.737,16,6.33,6.33,0,0,0-61,22.286a6.33,6.33,0,0,0,6.263,6.286A6.2,6.2,0,0,0-50.8,27.147l4.721,4.738a0.548,0.548,0,0,0,.455.114,0.548,0.548,0,0,0,.456-0.114A0.554,0.554,0,0,0-45.171,31.086Zm-9.565-3.657a5.112,5.112,0,0,1-5.124-5.143,5.112,5.112,0,0,1,5.124-5.143,5.112,5.112,0,0,1,5.124,5.143A5.112,5.112,0,0,1-54.737,27.429Zm1.708-5.714h-1.139V20.572A0.539,0.539,0,0,0-54.737,20a0.539,0.539,0,0,0-.569.571v1.143h-1.139a0.539,0.539,0,0,0-.569.571,0.539,0.539,0,0,0,.569.571h1.139V24a0.539,0.539,0,0,0,.569.572A0.539,0.539,0,0,0-54.167,24V22.857h1.139a0.539,0.539,0,0,0,.569-0.571A0.539,0.539,0,0,0-53.029,21.714Z"/>
  </g>
  <g id="Home">
    <circle class="cls-4" cx="-204" cy="24" r="20"/>
    <path class="cls-5" d="M-193.224,22.487l-9.954-7.409a0.539,0.539,0,0,0-.645,0l-9.954,7.409a0.561,0.561,0,0,0-.118.775,0.54,0.54,0,0,0,.763.12l9.631-7.169,9.632,7.169a0.536,0.536,0,0,0,.322.107,0.543,0.543,0,0,0,.441-0.227A0.561,0.561,0,0,0-193.224,22.487Zm-2.638,1.021a0.551,0.551,0,0,0-.546.555v8.828h-4.364V28.072A2.754,2.754,0,0,0-203.5,25.3a2.754,2.754,0,0,0-2.728,2.774v4.819h-4.365V24.062a0.55,0.55,0,0,0-.545-0.555,0.55,0.55,0,0,0-.546.555v9.383a0.55,0.55,0,0,0,.546.555h5.456a0.549,0.549,0,0,0,.543-0.511,0.291,0.291,0,0,0,0-.043V28.072a1.653,1.653,0,0,1,1.637-1.664,1.652,1.652,0,0,1,1.637,1.664v5.374a0.276,0.276,0,0,0,0,.043,0.548,0.548,0,0,0,.543.512h5.456a0.551,0.551,0,0,0,.546-0.555V24.062A0.551,0.551,0,0,0-195.862,23.507Z"/>
  </g>
  <g id="Home_copy" data-name="Home copy">
    <circle class="cls-4" cx="-129" cy="24" r="20"/>
    <path id="Forma_1-2" data-name="Forma 1" class="cls-5" d="M-133.143,27.286A1.859,1.859,0,0,0-135,29.143,1.859,1.859,0,0,0-133.143,31a1.859,1.859,0,0,0,1.857-1.857A1.859,1.859,0,0,0-133.143,27.286Zm4.643,0a1.859,1.859,0,0,0-1.857,1.857A1.859,1.859,0,0,0-128.5,31a1.859,1.859,0,0,0,1.857-1.857A1.859,1.859,0,0,0-128.5,27.286Zm4.643,0a1.859,1.859,0,0,0-1.857,1.857A1.859,1.859,0,0,0-123.857,31,1.859,1.859,0,0,0-122,29.143,1.859,1.859,0,0,0-123.857,27.286Zm-9.286-4.643A1.859,1.859,0,0,0-135,24.5a1.859,1.859,0,0,0,1.857,1.857,1.859,1.859,0,0,0,1.857-1.857A1.859,1.859,0,0,0-133.143,22.643Zm4.643,0a1.859,1.859,0,0,0-1.857,1.857,1.859,1.859,0,0,0,1.857,1.857,1.859,1.859,0,0,0,1.857-1.857A1.859,1.859,0,0,0-128.5,22.643Zm4.643,0a1.859,1.859,0,0,0-1.857,1.857,1.859,1.859,0,0,0,1.857,1.857A1.859,1.859,0,0,0-122,24.5,1.859,1.859,0,0,0-123.857,22.643ZM-133.143,18A1.859,1.859,0,0,0-135,19.857a1.859,1.859,0,0,0,1.857,1.857,1.859,1.859,0,0,0,1.857-1.857A1.859,1.859,0,0,0-133.143,18Zm4.643,0a1.859,1.859,0,0,0-1.857,1.857,1.859,1.859,0,0,0,1.857,1.857,1.859,1.859,0,0,0,1.857-1.857A1.859,1.859,0,0,0-128.5,18Zm4.643,3.714A1.859,1.859,0,0,0-122,19.857,1.859,1.859,0,0,0-123.857,18a1.859,1.859,0,0,0-1.857,1.857A1.859,1.859,0,0,0-123.857,21.714Z"/>
  </g>
  <g id="custom_report_copy_3" data-name="custom_report copy 3">
    <circle class="cls-4" cx="23" cy="24" r="20"/>
    <path id="Forma_1-3" data-name="Forma 1" class="cls-5" d="M30.829,31.086L26.056,26.3a6.25,6.25,0,0,0,1.47-4.01,6.263,6.263,0,1,0-6.263,6.286A6.2,6.2,0,0,0,25.2,27.147l4.721,4.738A0.606,0.606,0,0,0,30.829,31.086Zm-9.565-3.657a5.143,5.143,0,1,1,5.124-5.143A5.112,5.112,0,0,1,21.263,27.429Z"/>
    <rect class="cls-6" x="19" y="22" width="5" height="1"/>
  </g>
  <g id="custom_report_copy_4" data-name="custom_report copy 4">
    <circle class="cls-4" cx="99" cy="24" r="20"/>
    <path id="Forma_1-4" data-name="Forma 1" class="cls-5" d="M103.915,27.7h2.054a0.927,0.927,0,1,0,0-1.847h-4.295a0.969,0.969,0,0,0-1.01.923c0,0.012,0,.025,0,0.038s0,0.035,0,.053V31a0.947,0.947,0,1,0,1.893,0V28.987l3.822,3.725a0.964,0.964,0,0,0,1.339,0,0.908,0.908,0,0,0,0-1.3Zm-6.6-.924a0.971,0.971,0,0,0-1.011-.923H92.01a0.927,0.927,0,1,0,0,1.847h2.054l-3.8,3.7a0.911,0.911,0,0,0,0,1.3,0.963,0.963,0,0,0,1.338,0l3.823-3.725V31a0.947,0.947,0,1,0,1.893,0v-4.13c0-.018,0-0.037,0-0.053S97.314,26.79,97.315,26.778Zm3.349-4.578a0.969,0.969,0,0,0,1.01.923h4.295a0.926,0.926,0,1,0,0-1.845h-2.054l3.8-3.705a0.909,0.909,0,0,0,0-1.3,0.963,0.963,0,0,0-1.338,0l-3.822,3.726V17.982a0.947,0.947,0,1,0-1.894,0V22.11c0,0.019,0,.036,0,0.054A0.369,0.369,0,0,0,100.664,22.2Zm-4.3-5.189a0.959,0.959,0,0,0-.946.97v2.012L91.6,16.268a0.964,0.964,0,0,0-1.338,0,0.912,0.912,0,0,0,0,1.3l3.8,3.705H92.01a0.926,0.926,0,1,0,0,1.845H96.3a0.97,0.97,0,0,0,1.011-.923c0-.015,0-0.024,0-0.038s0-.035,0-0.054V17.982A0.957,0.957,0,0,0,96.368,17.011Z"/>
  </g>
  <g id="More">
    <circle class="cls-4" cx="174" cy="24" r="20"/>
    <path id="Forma_1-5" data-name="Forma 1" class="cls-5" d="M165.875,21a3,3,0,1,0,2.875,3A2.94,2.94,0,0,0,165.875,21Zm0,4.5a1.5,1.5,0,1,1,1.438-1.5A1.47,1.47,0,0,1,165.875,25.5Zm17.25-4.5A3,3,0,1,0,186,24,2.94,2.94,0,0,0,183.125,21Zm0,4.5a1.5,1.5,0,1,1,1.438-1.5A1.47,1.47,0,0,1,183.125,25.5ZM174.5,21a3,3,0,1,0,2.875,3A2.94,2.94,0,0,0,174.5,21Zm0,4.5a1.5,1.5,0,1,1,1.438-1.5A1.469,1.469,0,0,1,174.5,25.5Z"/>
  </g>
  <rect id="Rectangle_519_copy_5" data-name="Rectangle 519 copy 5" class="cls-7" x="-423" y="-1043" width="845" height="43" rx="21.5" ry="21.5"/>
  <rect id="Rectangle_519_copy_8" data-name="Rectangle 519 copy 8" class="cls-8" x="-423" y="-1043" width="105" height="43" rx="21.5" ry="21.5"/>
  <text id="Intro" class="cls-9" x="-386" y="-1016.002">Intro</text>
  <text id="Exec_Summery" data-name="Exec Summery" class="cls-10" x="-285" y="-1016.002">Exec Summery</text>
  <text id="Global_Insights" data-name="Global Insights" class="cls-10" x="-135" y="-1017">Global Insights</text>
  <text id="Industry_Insights" data-name="Industry Insights" class="cls-10" x="5" y="-1016.002">Industry Insights</text>
  <text id="Recommendations" class="cls-10" x="159" y="-1016.002">Recommendations</text>
  <text id="Appendix" class="cls-10" x="327" y="-1016.002">Appendix</text>
  <rect class="cls-1" x="-809" y="-1038" width="226" height="132"/>
</svg>
